<svg width="19" height="18" viewBox="0 0 19 18" fill="none" xmlns="http://www.w3.org/2000/svg">
<path fill-rule="evenodd" clip-rule="evenodd" d="M5.75 5.25C5.75 3.17893 7.42893 1.5 9.5 1.5C11.5711 1.5 13.25 3.17893 13.25 5.25C13.25 7.32107 11.5711 9 9.5 9C7.42893 9 5.75 7.32107 5.75 5.25ZM9.5 3C8.25736 3 7.25 4.00736 7.25 5.25C7.25 6.49264 8.25736 7.5 9.5 7.5C10.7426 7.5 11.75 6.49264 11.75 5.25C11.75 4.00736 10.7426 3 9.5 3Z" fill="#EB5017"/>
<path fill-rule="evenodd" clip-rule="evenodd" d="M5.41657 16.438C6.67236 16.9877 8.34462 17.25 9.5 17.25C10.6554 17.25 12.3276 16.9877 13.5834 16.438C14.1999 16.1682 14.8269 15.782 15.1912 15.2231C15.3828 14.9291 15.5039 14.5828 15.4999 14.1962C15.496 13.8131 15.3699 13.4461 15.1581 13.1046C14.131 11.4492 12.0299 9.75 9.5 9.75C6.97009 9.75 4.86899 11.4492 3.84194 13.1046C3.63008 13.4461 3.50403 13.8131 3.50009 14.1962C3.49612 14.5828 3.61724 14.9291 3.80881 15.2231C4.17309 15.782 4.80007 16.1682 5.41657 16.438ZM5.00002 14.2116C5.00058 14.1568 5.01779 14.0546 5.11654 13.8954C5.95816 12.5389 7.63675 11.25 9.5 11.25C11.3632 11.25 13.0418 12.5389 13.8835 13.8954C13.9822 14.0546 13.9994 14.1568 14 14.2116C14.0005 14.2628 13.9874 14.323 13.9345 14.4041C13.8098 14.5954 13.5072 14.834 12.982 15.0639C11.9544 15.5136 10.4951 15.75 9.5 15.75C8.50493 15.75 7.04558 15.5136 6.01799 15.0639C5.4928 14.834 5.19015 14.5954 5.06552 14.4041C5.01265 14.323 4.99949 14.2628 5.00002 14.2116Z" fill="#EB5017"/>
<path d="M16.25 2.25C16.25 1.83579 15.9142 1.5 15.5 1.5C15.0858 1.5 14.75 1.83579 14.75 2.25V3H14C13.5858 3 13.25 3.33579 13.25 3.75C13.25 4.16421 13.5858 4.5 14 4.5H14.75V5.25C14.75 5.66421 15.0858 6 15.5 6C15.9142 6 16.25 5.66421 16.25 5.25V4.5H17C17.4142 4.5 17.75 4.16421 17.75 3.75C17.75 3.33579 17.4142 3 17 3H16.25V2.25Z" fill="#EB5017"/>
</svg>
