<svg width="24" height="24" viewBox="0 0 24 24" fill="none" xmlns="http://www.w3.org/2000/svg">
<g clip-path="url(#clip0_3569_2288)">
<path d="M16.4947 4.90878C15.259 3.67313 13.2556 3.67313 12.02 4.90878L6.1311 10.7977C4.08236 12.8464 4.08236 16.1681 6.1311 18.2168C8.17983 20.2655 11.5015 20.2655 13.5502 18.2168L20.1752 11.5918L21.5894 13.006L14.9644 19.631C12.1347 22.4608 7.54667 22.4608 4.71688 19.631C1.8871 16.8012 1.8871 12.2132 4.71688 9.38346L10.6058 3.49457C12.6225 1.47787 15.8922 1.47787 17.9089 3.49457C19.9256 5.51126 19.9256 8.78098 17.9089 10.7977L12.02 16.6866C10.8164 17.8902 8.86494 17.8902 7.66133 16.6866C6.45772 15.483 6.45772 13.5315 7.66133 12.3279L14.2863 5.7029L15.7005 7.11712L9.07554 13.7421C8.65298 14.1647 8.65298 14.8498 9.07554 15.2723C9.4981 15.6949 10.1832 15.6949 10.6058 15.2723L16.4947 9.38346C17.7303 8.14781 17.7303 6.14443 16.4947 4.90878Z" fill="#98A2B3"/>
</g>
<defs>
<clipPath id="clip0_3569_2288">
<rect width="24" height="24" fill="white"/>
</clipPath>
</defs>
</svg>
