<svg width="40" height="40" viewBox="0 0 40 40" fill="none" xmlns="http://www.w3.org/2000/svg">
<rect width="40" height="40" rx="20" transform="matrix(-1 0 0 1 40 0)" fill="#FFECE5"/>
<path d="M20 18.75C22.7614 18.75 25 16.5114 25 13.75C25 10.9886 22.7614 8.75 20 8.75C17.2386 8.75 15 10.9886 15 13.75C15 16.5114 17.2386 18.75 20 18.75Z" fill="black"/>
<path d="M11.6321 27.5C9.56132 30.8376 16.4159 32.5 20 32.5C23.5841 32.5 30.4387 30.8376 28.3679 27.5C26.8107 24.9901 23.661 22.5 20 22.5C16.339 22.5 13.1893 24.9901 11.6321 27.5Z" fill="black"/>
</svg>
