<svg width="25" height="24" viewBox="0 0 25 24" fill="none" xmlns="http://www.w3.org/2000/svg">
<path fill-rule="evenodd" clip-rule="evenodd" d="M10.3744 2.80756C8.81235 1.24546 6.27969 1.24546 4.71759 2.80756L4.18206 3.34309C3.44369 4.08146 2.93866 5.18793 3.22673 6.38653C3.66834 8.22404 4.99723 11.5725 8.96023 15.5355C12.9232 19.4985 16.2717 20.8274 18.1092 21.269C19.3078 21.5571 20.4143 21.052 21.1526 20.3137L21.6882 19.7781C23.2503 18.216 23.2503 15.6834 21.6882 14.1213L20.7593 13.1924C19.486 11.9191 17.5189 11.6536 15.9536 12.5437L15.8571 12.5985C15.2157 12.9633 14.4788 12.9335 13.9568 12.5557C13.5355 12.2508 13.1329 11.93 12.8493 11.6464C12.5657 11.3628 12.2449 10.9602 11.94 10.539C11.5622 10.0169 11.5324 9.28004 11.8972 8.63861L11.9521 8.54207C12.8421 6.97677 12.5766 5.0097 11.3033 3.73644L10.3744 2.80756ZM6.13181 4.22177C6.91286 3.44072 8.17918 3.44072 8.96023 4.22177L9.88911 5.15065C10.5257 5.78728 10.6585 6.77082 10.2135 7.55347L10.1586 7.65C9.45368 8.88966 9.42895 10.4805 10.3198 11.7115C10.6471 12.1637 11.0403 12.6658 11.4351 13.0606C11.8299 13.4554 12.332 13.8487 12.7842 14.1759C14.0152 15.0668 15.6061 15.042 16.8457 14.3371L16.9422 14.2822C17.7249 13.8372 18.7084 13.97 19.3451 14.6066L20.2739 15.5355C21.055 16.3165 21.055 17.5829 20.2739 18.3639L19.7384 18.8994C19.3516 19.2863 18.9252 19.4082 18.5765 19.3244C17.1075 18.9713 14.0841 17.8309 10.3744 14.1213C6.66478 10.4116 5.52441 7.38822 5.17135 5.91918C5.08756 5.57053 5.20942 5.14416 5.59627 4.75731L6.13181 4.22177Z" fill="#EB5017"/>
</svg>
