<svg width="24" height="24" viewBox="0 0 24 24" fill="none" xmlns="http://www.w3.org/2000/svg">
<path fill-rule="evenodd" clip-rule="evenodd" d="M7 13C7 10.2386 9.23858 8 12 8C14.7614 8 17 10.2386 17 13C17 15.7614 14.7614 18 12 18C9.23858 18 7 15.7614 7 13ZM12 10C10.3431 10 9 11.3431 9 13C9 14.6569 10.3431 16 12 16C13.6569 16 15 14.6569 15 13C15 11.3431 13.6569 10 12 10Z" fill="#98A2B3"/>
<path d="M15.8477 9.19233C16.2486 9.32596 16.5631 9.64055 16.6968 10.0415C16.8328 10.4495 17.4099 10.4495 17.5459 10.0415C17.6795 9.64055 17.9941 9.32596 18.395 9.19233C18.803 9.05633 18.803 8.47921 18.395 8.34321C17.9941 8.20957 17.6795 7.89498 17.5459 7.49408C17.4099 7.08607 16.8328 7.08607 16.6968 7.49408C16.5631 7.89498 16.2486 8.20957 15.8477 8.34321C15.4396 8.47921 15.4396 9.05633 15.8477 9.19233Z" fill="#98A2B3"/>
<path fill-rule="evenodd" clip-rule="evenodd" d="M7.41421 3.67157C8.16436 2.92143 9.18177 2.5 10.2426 2.5H13.7574C14.8182 2.5 15.8356 2.92143 16.5858 3.67157L17.2717 4.35748C17.4632 4.549 17.6916 4.69962 17.9431 4.80022L20.4856 5.81719C22.0042 6.42465 23 7.89548 23 9.5311V17.5C23 19.7091 21.2091 21.5 19 21.5H5C2.79086 21.5 1 19.7091 1 17.5V9.5311C1 7.89548 1.9958 6.42465 3.51444 5.81719L6.05688 4.80022C6.30836 4.69962 6.53679 4.549 6.72831 4.35748L7.41421 3.67157ZM10.2426 4.5C9.71221 4.5 9.2035 4.71071 8.82843 5.08579L8.14252 5.77169C7.75948 6.15474 7.30262 6.45598 6.79966 6.65717L4.25722 7.67415C3.4979 7.97787 3 8.71329 3 9.5311V17.5C3 18.6046 3.89543 19.5 5 19.5H19C20.1046 19.5 21 18.6046 21 17.5V9.5311C21 8.71329 20.5021 7.97787 19.7428 7.67415L17.2003 6.65717C16.6974 6.45598 16.2405 6.15473 15.8575 5.77169L15.1716 5.08579C14.7965 4.71071 14.2878 4.5 13.7574 4.5H10.2426Z" fill="#98A2B3"/>
</svg>
