<svg width="122" height="126" viewBox="0 0 122 126" fill="none" xmlns="http://www.w3.org/2000/svg">
<path d="M56.4559 -3.34395C68.0981 -4.09407 81.6721 0.0606003 90.5322 7.64131C105.123 20.1246 107.085 39.7908 92.8621 53.4356C92.055 54.21 91.1607 54.9018 90.4441 55.7664L90.4472 68.3962C90.4472 70.0188 90.6113 73.028 90.3473 74.5299C89.9089 77.022 87.0687 77.7973 85.1221 76.5482C83.8285 75.7181 82.607 74.5117 81.4248 73.5236L74.6832 67.9348C73.3781 66.848 71.8335 65.9131 70.6656 64.6895C70.1407 65.516 69.7377 66.4366 69.24 67.2851C61.6623 80.2037 46.195 86.5972 31.7222 87.2129C28.02 87.2786 23.314 87.1802 19.7342 86.1982C18.7927 86.6722 17.4761 87.957 16.6233 88.65L7.5803 95.8614C5.97126 97.1441 4.18422 99.3937 1.93945 99.3601C-1.57742 99.3075 -1.38185 95.7864 -1.38095 93.4311L-1.38004 80.241C-1.38125 78.8714 -1.44573 77.4955 -1.37943 76.128C-2.8743 75.1532 -4.14367 73.6519 -5.32476 72.3317C-20.7707 55.0668 -13.2534 31.7042 6.88068 21.6437C8.99286 20.5884 11.1689 19.6635 13.4031 18.8988C18.4124 17.1838 17.6256 18.8376 20.7704 14.8122C28.0043 5.55184 38.0541 -0.262722 49.6153 -2.5094C51.8861 -2.95073 54.169 -3.05602 56.4559 -3.34395Z" fill="#69B2D1"/>
<path d="M57.2551 3.17648L59.2755 3.17285C69.9736 3.24581 80.7948 6.83019 88.4128 14.572C97.7192 24.0294 98.6407 37.6955 89.4309 47.759C88.1101 49.2018 86.6094 50.4097 85.2302 51.782C83.2433 53.7583 83.9151 56.33 83.9169 58.9102L83.9199 67.3283C82.3624 66.1177 80.8711 64.8011 79.365 63.5266L74.2058 59.2262C73.7683 58.8596 73.3279 58.5351 72.8474 58.2269C78.6254 34.6987 54.2011 17.3133 32.997 16.3445C31.364 16.2697 29.7093 16.3239 28.0742 16.327C35.9305 7.49771 45.8711 3.97116 57.2551 3.17648Z" fill="#96C9DF"/>
<path opacity="0.3" d="M28.2861 22.7754C41.1456 22.5471 54.8204 27.3397 62.5598 38.0646C71.5138 50.4731 66.6555 64.5273 54.8728 72.963C45.891 79.3936 33.7262 81.9281 22.8626 80.122C16.5248 79.1902 18.2522 78.8705 13.12 83.0537C10.6076 85.1017 8.06008 87.3332 5.37422 89.1344C5.4726 84.8604 5.63033 79.1966 5.34606 74.9613C5.18349 72.5416 3.49787 71.8232 1.85493 70.3794C-8.60902 61.1827 -9.93809 46.3626 -0.646262 35.8075C6.89001 27.2464 17.1881 23.481 28.2861 22.7754Z" fill="white"/>
<path d="M41.2281 51.6483C43.1168 51.5932 48.1976 51.3319 49.6347 52.2405C52.4498 54.0199 51.1457 57.6367 48.0759 58.227C46.0576 58.3142 40.625 58.5561 39.2854 57.528C36.9271 55.7183 37.947 51.8853 41.2281 51.6483Z" fill="#7AB5CE"/>
<path d="M11.6637 64.6896C13.6838 64.6345 21.9013 64.4692 23.2206 64.8434C26.3079 65.7189 26.0693 69.5706 22.8624 71.2662C20.8205 71.4987 11.7382 71.4248 10.5814 70.7906C7.81897 69.2766 8.48165 65.3786 11.6637 64.6896Z" fill="#7AB5CE"/>
<path d="M12.482 51.6486C16.5574 51.5829 24.7155 51.1878 28.5805 51.6725C32.4434 52.1572 32.6238 57.6685 28.074 58.2273L17.0448 58.2297C15.196 58.2312 11.6546 58.7828 10.1113 57.5177C7.67274 55.519 8.86127 51.7921 12.482 51.6486Z" fill="#7AB5CE"/>
<path d="M12.0048 38.8066C13.995 38.6916 16.0699 38.8054 18.067 38.8057L41.7339 38.8039C43.6938 38.8027 47.976 38.305 49.6474 39.4133C52.3284 41.1912 50.9331 44.9127 48.0759 45.4004L16.0124 45.4026C14.6092 45.4023 13.147 45.484 11.7526 45.3435C7.90304 44.956 7.85491 39.3912 12.0048 38.8066Z" fill="#7AB5CE"/>
</svg>
