<svg width="25" height="24" viewBox="0 0 25 24" fill="none" xmlns="http://www.w3.org/2000/svg">
<path d="M6.5 10C6.5 9.44772 6.94772 9 7.5 9H12.5C13.0523 9 13.5 9.44772 13.5 10C13.5 10.5523 13.0523 11 12.5 11H7.5C6.94772 11 6.5 10.5523 6.5 10Z" fill="#EB5017"/>
<path d="M7.5 13C6.94772 13 6.5 13.4477 6.5 14C6.5 14.5523 6.94772 15 7.5 15H16.5C17.0523 15 17.5 14.5523 17.5 14C17.5 13.4477 17.0523 13 16.5 13H7.5Z" fill="#EB5017"/>
<path fill-rule="evenodd" clip-rule="evenodd" d="M2.5 12C2.5 6.47715 6.97715 2 12.5 2C18.0228 2 22.5 6.47715 22.5 12C22.5 17.5228 18.0228 22 12.5 22C11.6677 22 10.8578 21.8981 10.0827 21.7056L4.53877 21.0126C3.34049 20.8628 2.50773 19.7459 2.70626 18.5547L3.04915 16.4974C3.05113 16.4854 3.05138 16.4733 3.04988 16.4613L2.79438 14.4173C2.6019 13.6422 2.5 12.8323 2.5 12ZM12.5 4C8.08172 4 4.5 7.58172 4.5 12C4.5 12.6866 4.58625 13.3515 4.74801 13.9853L4.76355 14.0462L5.03444 16.2132C5.05992 16.4171 5.05571 16.6235 5.02193 16.8262L4.67905 18.8835C4.66737 18.9536 4.71635 19.0193 4.78684 19.0281L10.4538 19.7364L10.5147 19.752C11.1485 19.9137 11.8135 20 12.5 20C16.9183 20 20.5 16.4183 20.5 12C20.5 7.58172 16.9183 4 12.5 4Z" fill="#EB5017"/>
</svg>
