<svg width="38" height="38" viewBox="0 0 38 38" fill="none" xmlns="http://www.w3.org/2000/svg">
<circle cx="19" cy="19" r="18.75" fill="white"/>
<path fill-rule="evenodd" clip-rule="evenodd" d="M27.5961 9.90998C26.2495 8.56339 24.0662 8.56339 22.7196 9.90998L14.1942 18.4354C13.5822 19.0474 13.1852 19.8414 13.0628 20.6982L12.8157 22.4276C12.6272 23.7475 13.7585 24.8789 15.0785 24.6903L16.8078 24.4432C17.6646 24.3208 18.4586 23.9239 19.0706 23.3119L27.5961 14.7864C28.9426 13.4398 28.9426 11.2566 27.5961 9.90998ZM24.3433 11.1505C24.907 10.7662 25.6818 10.8241 26.1818 11.3242C26.6819 11.8243 26.7398 12.599 26.3555 13.1627L24.3433 11.1505ZM22.9112 12.5468L24.9592 14.5948L17.6564 21.8977C17.3504 22.2037 16.9534 22.4021 16.525 22.4633L14.7956 22.7104L15.0427 20.981C15.1039 20.5526 15.3024 20.1557 15.6084 19.8497L22.9112 12.5468Z" fill="#98A2B3"/>
<path d="M13 8.99999C10.7909 8.99999 9 10.7909 9 13V25C9 27.2091 10.7909 29 13 29H25C27.2091 29 29 27.2091 29 25V19C29 18.4477 28.5523 18 28 18C27.4477 18 27 18.4477 27 19V25C27 26.1046 26.1046 27 25 27H13C11.8954 27 11 26.1046 11 25V13C11 11.8954 11.8954 11 13 11H15.6842C16.2365 11 16.6842 10.5523 16.6842 9.99999C16.6842 9.44771 16.2365 8.99999 15.6842 8.99999H13Z" fill="#98A2B3"/>
</svg>
