<svg width="114" height="114" viewBox="0 0 114 114" fill="none" xmlns="http://www.w3.org/2000/svg">
<path d="M64.5575 7.2619C71.9162 1.73702 80.9404 9.66039 75.1483 11.1586C72.851 10.5531 70.5769 6.7399 66.8267 10.1866C64.9797 12.3722 61.7383 9.57883 64.5575 7.2619Z" fill="#518560"/>
<path d="M65.9095 54.2607C61.9323 52.7366 59.1302 46.7476 63.0945 46.8801C64.2369 46.9181 65.2691 49.1802 66.15 50.0897C68.8733 52.2694 73.0594 52.4325 75.3676 49.5202C76.0041 48.7167 76.5016 47.2868 77.6621 47.1653C78.7339 47.0531 79.7906 47.9384 79.8052 49.0294C79.8221 50.3139 78.4437 51.764 77.5836 52.5973C74.6426 55.4467 69.5159 56.5017 65.9095 54.2607Z" fill="#518560"/>
<path d="M59.013 0.804452L59.1184 0.752983C60.0429 0.293983 60.8234 -0.402674 61.7431 -0.865612C68.31 -4.17238 75.6253 -3.39205 81.2132 1.28792C84.3708 3.93251 81.6649 5.79523 80.1945 5.10083C79.4944 4.77036 78.3481 3.60148 77.5772 3.07892C73.1874 0.104982 65.9168 -0.168956 61.8322 3.46704C60.4707 4.66123 57.9698 5.77301 57.8283 2.9802C57.7791 2.01242 58.4209 1.46736 59.013 0.804452Z" fill="#518560"/>
<path d="M77.6264 30.2754C85.4097 29.6513 87.0496 40.2848 79.3923 41.8694C71.7789 42.8774 69.3379 31.8901 77.6264 30.2754ZM78.3871 33.863C75.4329 34.3395 75.5974 38.2143 78.7694 38.2266C81.9241 37.5331 80.8422 33.4763 78.3871 33.863Z" fill="#518560"/>
<path d="M-5.61322 44.8798C-5.6583 43.8296 -5.61594 42.7634 -5.6158 41.7116L-5.61544 35.4796C-5.61381 24.7145 -5.4299 17.5406 0.45492 7.72474C4.52995 0.927491 11.6189 -4.77823 18.8391 -7.92536C28.6589 -12.2057 39.6499 -11.7269 49.4816 -7.61162C51.5234 -6.75693 56.1939 -5.43132 54.3376 -2.50952C56.0018 -1.58435 57.3929 -0.211289 59.0128 0.804585C58.4208 1.46749 57.779 2.01255 57.8282 2.98034C57.9697 5.77315 60.4706 4.66137 61.8321 3.46718C62.7071 4.72549 63.5545 6.11093 64.5574 7.26237C61.7382 9.5793 64.9796 12.3727 66.8265 10.1871C67.6945 11.2094 68.8813 14.3487 69.1828 15.6788L79.822 15.6805C81.9583 15.6799 84.7112 15.4366 86.7506 15.9161C90.6965 16.8443 94.0304 20.3855 94.3615 24.4901C94.5215 26.474 94.6599 34.4162 93.8302 35.2487C92.7561 36.3265 90.9772 35.87 90.7294 34.2919C90.6045 33.4974 90.7103 32.5903 90.719 31.7846L90.7277 27.7045C90.7325 21.2697 88.6602 19.4008 82.3842 19.3952L64.5574 19.3949C65.078 21.3339 67.3241 30.4416 66.8265 31.8346C69.211 35.051 69.0881 37.222 66.8265 40.3568C67.3125 41.2725 66.6401 48.2987 66.1496 50.0906C65.2687 49.181 64.2365 46.9189 63.0941 46.8809C59.1299 46.7485 61.9319 52.7374 65.9091 54.2615C65.0189 56.5371 64.806 59.0298 63.8855 61.3234C63.6824 61.8291 63.415 62.3213 63.2322 62.8326L83.4647 62.8419C91.1189 62.8888 90.7443 59.1721 90.7319 53.2715L90.7215 44.6759C90.7201 43.2604 90.2018 40.111 92.4802 40.1557C94.6818 40.1993 94.3952 42.717 94.3902 44.2144L94.384 54.5343C94.3904 59.7476 93.6977 64.695 87.49 66.2371C85.9155 66.6283 84.2455 66.5344 82.6362 66.5333L76.7783 66.5246C75.6285 66.5184 74.4906 66.4604 73.3411 66.5288C72.7603 67.8965 72.5418 69.9218 71.2796 70.8597C73.2514 73.7262 68.5723 76.0924 66.3507 76.5759C65.4841 76.7643 64.5833 76.7741 63.7356 77.0475L63.6282 77.0832C62.7971 77.9287 61.9859 79.3397 61.183 80.3314C45.0693 100.229 25.1537 96.496 11.0029 77.0832C2.91473 77.1378 -3.54766 72.2117 -5.23434 64.2006C-5.43808 63.2328 -5.48106 62.2324 -5.61322 61.2528C-10.6667 60.4285 -10.373 56.5745 -10.3706 52.7914C-10.3683 49.0766 -10.6483 45.0078 -5.61322 44.8798ZM23.5723 17.2234C17.4646 23.0776 14.0058 27.6322 5.80317 31.8346L5.80486 40.8611C5.80626 44.7685 5.24714 49.7621 5.56298 53.2943C7.22573 71.886 27.1562 98.7204 48.1619 86.7453C54.8909 82.6708 62.3881 74.3534 64.5574 66.5288L58.9701 66.5341C55.2958 66.5352 52.3382 66.6941 49.5131 63.8746C46.3032 60.6709 46.7892 57.3325 46.7996 53.1837L46.7979 44.107C45.5789 44.119 43.5444 44.4177 42.6331 43.5048C41.9438 42.8146 42.1097 41.4325 42.8129 40.8121C43.7286 40.0035 45.6389 40.4043 46.7979 40.3568C46.8418 36.3715 46.5299 31.7083 46.7979 27.8139C39.8339 27.394 30.021 22.4915 24.8053 18.2978C24.4467 18.0092 23.9126 17.4298 23.5723 17.2234ZM63.2322 62.8326C63.415 62.3213 63.6824 61.8291 63.8855 61.3234C64.806 59.0298 65.0189 56.5371 65.9091 54.2615C61.9319 52.7374 59.1299 46.7485 63.0941 46.8809C64.2365 46.9189 65.2687 49.181 66.1496 50.0906C66.6401 48.2987 67.3125 41.2725 66.8265 40.3568C69.0881 37.222 69.211 35.051 66.8265 31.8346C67.3241 30.4416 65.078 21.3339 64.5574 19.3949L59.1912 19.3907C51.9231 19.3803 50.4612 20.5346 50.4749 28.4821L50.4809 50.0453C50.4806 52.3214 50.4395 54.6021 50.4704 56.8774C50.57 64.193 58.0819 63.0483 63.2322 62.8326ZM-5.3122 48.4745C-5.68409 48.5358 -6.31184 48.6247 -6.51167 48.9971C-6.67136 49.2943 -7.27375 57.0141 -5.92543 57.4225C-4.91937 57.7273 -0.0608931 57.5397 1.32398 57.54H2.52717C1.89829 53.7285 2.03414 52.0323 1.84936 48.4745C-0.528332 48.6531 -2.95698 48.2458 -5.3122 48.4745Z" fill="#518560"/>
<path d="M68.5878 66.5281C70.0211 66.5385 71.9611 66.3279 73.3412 66.5281C72.7604 67.8959 72.5419 69.9211 71.2796 70.8591C69.3503 69.1727 67.937 72.1197 65.9092 72.8655C66.9864 70.8363 67.8895 68.7185 68.5878 66.5281Z" fill="#599F6C"/>
<path d="M-1.57787 61.252C0.0826302 61.189 1.76957 61.2503 3.4326 61.252C4.18185 64.2664 5.5071 67.2643 6.90547 70.0267C7.33185 70.8691 8.36066 72.356 8.5851 73.096L8.46613 73.1776C4.4496 72.5276 1.08022 69.9646 -0.65537 66.2498C-1.08259 65.3352 -2.08058 62.2187 -1.7469 61.2931L-1.57787 61.252Z" fill="#599F6C"/>
<path d="M19.4016 -3.91406C19.5625 -3.7589 19.4849 -3.25487 19.4753 -3.03952C19.1541 4.16611 20.1858 7.29023 21.5245 13.8338C16.6369 19.2661 12.5048 23.7737 5.94635 27.5917C4.75807 28.2836 3.18166 28.9262 2.21866 29.9137C1.62269 30.5246 2.19532 32.1004 2.20291 32.8525C2.24397 36.8592 2.19757 40.8718 2.19644 44.8793H0.767692H-1.81953L-1.82178 34.6685C-1.82178 27.8066 -1.81306 22.4552 0.614971 15.8875C3.9101 6.97411 10.83 0.0393283 19.4016 -3.91406Z" fill="#599F6C"/>
<path d="M63.2322 62.8326C58.082 63.0483 50.5701 64.193 50.4705 56.8774C50.4396 54.6021 50.4806 52.3214 50.4809 50.0453L50.475 28.4821C50.4612 20.5345 51.9232 19.3803 59.1912 19.3907L64.5575 19.3949C65.0781 21.3339 67.3241 30.4416 66.8266 31.8346C69.2111 35.051 69.0881 37.2219 66.8266 40.3568C67.3126 41.2725 66.6401 48.2987 66.1496 50.0905C65.2688 49.181 64.2366 46.9189 63.0941 46.8809C59.1299 46.7484 61.932 52.7374 65.9092 54.2615C65.019 56.5371 64.8061 59.0298 63.8856 61.3234C63.6825 61.8291 63.4151 62.3213 63.2322 62.8326ZM66.8266 40.3568C69.0881 37.2219 69.2111 35.051 66.8266 31.8346C65.4057 30.7133 63.8954 29.9536 62.0406 30.1693C52.4888 31.2791 57.5392 47.0297 66.8266 40.3568Z" fill="#599F6C"/>
<path d="M66.8265 40.3559C57.5391 47.0289 52.4887 31.2783 62.0405 30.1685C63.8954 29.9528 65.4057 30.7124 66.8265 31.8338C69.211 35.0501 69.0881 37.2211 66.8265 40.3559ZM62.2101 33.8624C59.2961 34.6083 60.2014 38.4853 63.2322 38.226C65.8613 36.6789 64.7281 33.4161 62.2101 33.8624Z" fill="#518560"/>
<path d="M23.5723 -5.62601C30.7341 -9.01561 42.8948 -6.48905 49.6675 -3.29976C51.2965 -2.53265 52.6989 -1.12654 54.3377 -2.50987C56.0019 -1.5847 57.3929 -0.211638 59.0129 0.804237C58.4209 1.46714 57.7791 2.01221 57.8283 2.97999C57.9698 5.7728 60.4706 4.66102 61.8322 3.46683C62.7071 4.72514 63.5545 6.11058 64.5575 7.26202C61.7382 9.57895 64.9796 12.3723 66.8266 10.1867C67.6945 11.2091 68.8814 14.3484 69.1829 15.6784L59.7433 15.677C57.9242 15.6742 55.8733 15.4998 54.0882 15.8486C49.998 16.6473 47.4884 20.2501 46.7979 24.1874C38.6679 22.4034 31.5174 19.8508 25.3746 13.834C23.9208 6.33811 22.4403 2.69621 23.5723 -5.62601Z" fill="#599F6C"/>
<path d="M34.1121 58.6665C35.6334 58.6172 36.6586 60.0181 38.2406 59.5184C39.0644 59.2579 39.9503 58.4814 40.8481 58.6878C42.8011 59.1367 42.8624 61.3892 40.9541 62.4203C34.9876 65.2339 29.7305 60.1914 34.1121 58.6665Z" fill="#518560"/>
<path d="M24.1048 39.4118C25.9729 39.2738 31.7323 39.5606 32.5457 41.7659C32.9718 42.9218 32.301 44.2609 30.9955 44.3011C30.1092 44.3287 29.0981 43.7378 28.2403 43.5068C25.1564 42.6769 21.6225 43.0903 18.6407 44.1065C17.4499 44.5607 13.806 46.7176 13.4469 46.7187C12.3309 46.7221 11.4413 45.8356 11.486 44.7053C11.6097 41.5733 21.5199 39.3753 24.1048 39.4118Z" fill="#518560"/>
<path d="M27.1617 68.5787C27.9796 68.5326 28.8042 68.5726 29.6232 68.5754L46.6121 68.581C48.1964 68.5936 49.0097 68.8501 48.9881 70.5618C48.9465 73.8519 48.1691 76.0766 45.7897 78.4008C42.9932 80.8218 37.3339 80.7009 33.6535 80.3814C26.5466 79.7643 24.2145 69.7831 27.1617 68.5787Z" fill="#518560"/>
<path d="M29.6587 72.3633H45.0712C44.8124 73.5727 44.4446 74.3832 43.6441 75.3313C41.6118 77.3228 35.8476 77.07 33.4677 76.6158C31.5417 76.2482 30.0347 74.1709 29.6587 72.3633Z" fill="#599F6C"/>
</svg>
