<?xml version="1.0" encoding="UTF-8"?>
<svg id="Layer_1" xmlns="http://www.w3.org/2000/svg" viewBox="0 0 1920 1080">
  <defs>
    <style>
      .cls-1 {
        fill: #EB5017;
      }
    </style>
  </defs>
  <path d="M1074.76,513.15v-19.49c-5.1,2.68-9.84,5.24-14.65,7.66-1.47.74-2.05,1.62-2.02,3.27.11,4.82.05,9.65.05,14.47-.03,21.3-.03,42.59-.13,63.89,0,2.06.59,2.8,2.67,2.72,3.58-.14,7.16-.08,10.75-.08,3.38,0,3.34,0,3.36-3.41.12-18.3.04-36.6.51-54.89.14-5.57,1.18-11.3,2.86-16.63,3.19-10.09,12.05-15.89,22.05-15.3,3.5.21,6.71,1.26,9.24,3.83,1.4,1.42,1.94,3.16,1.16,5.04-.78,1.89-2.4,2.7-4.41,2.66-1.41-.03-2.92-.53-4.21-.17-1.73.47-3.79,1.17-4.82,2.48-2.44,3.09-.85,9.41,2.51,11.54,4.98,3.17,12.76.85,15.16-4.52,3.5-7.82-.97-18.59-8.99-21.66-7.91-3.03-17.57-.51-23.99,6.19-3.4,3.55-5.56,7.77-7.11,12.4Z"/>
  <path d="M753.22,585.59c0-1.32,0-2.3,0-3.28-.01-15.72-.23-31.44.07-47.16.13-6.86.74-13.83,2.16-20.53,2.1-9.9,7.81-17.06,18.39-19.01,4.84-.89,9.5-.18,13.33,3.29,1.7,1.54,2.25,3.49,1.33,5.66-.89,2.11-2.72,2.5-4.77,2.36-1.33-.09-2.76-.5-3.96-.14-1.65.49-3.63,1.21-4.57,2.49-2.6,3.56-.5,10.13,3.5,12.04,5.11,2.43,11.6.05,13.9-5.12,4.21-9.42-1.77-20.7-11.91-22.47-11.4-1.98-22.63,5.3-26.5,17.19-.26.81-.54,1.61-.81,2.41-.15-.04-.29-.09-.44-.13v-19.29c-4.85,2.57-9.36,5.05-13.96,7.35-1.71.85-2.37,1.88-2.36,3.84.08,15.05.03,30.11.02,45.16,0,10.9,0,21.79.01,32.69,0,1.2-.32,2.66,1.67,2.66,4.82,0,9.64,0,14.89,0Z"/>
  <path d="M880.84,494.5c1.86,4.45,3.58,8.4,5.16,12.4,10.03,25.36,20.06,50.72,30.01,76.11.76,1.94,1.77,2.87,3.85,2.59.74-.1,1.51-.11,2.24,0,2.32.34,3.32-.75,4.13-2.88,9.36-24.55,18.84-49.05,28.27-73.57,1.84-4.79,3.63-9.6,5.47-14.49-2.15-.84-2.33.65-2.75,1.74-9.27,23.87-18.52,47.74-27.79,71.62-.31.8-.7,1.57-1.28,2.86-.51-1.13-.81-1.68-1.03-2.26-5.87-15.47-11.75-30.93-17.61-46.4-3.24-8.55-6.44-17.12-9.75-25.64-.32-.83-1.33-1.95-2.04-1.97-5.48-.17-10.97-.09-16.89-.09Z"/>
  <path d="M1198.42,503.62c-8.49-7.33-18.4-11.02-29.65-10.41-14.18.77-22.99,8.91-28.47,21.36-.21.48-.47.93-.7,1.4-.2-.03-.4-.06-.6-.09,0-2.02,0-4.04,0-6.05-.01-15.14-.06-30.28,0-45.43,0-2.13-.71-2.7-2.75-2.61-3.58.16-7.17.21-10.74.04-2.52-.13-3.23.68-3.22,3.23.11,20.47.06,40.93.06,61.4,0,18.72.05,37.44-.03,56.16,0,2.29.63,3.08,2.95,2.98,3.58-.16,7.17-.13,10.74.05,2.26.11,3.1-.58,3.03-2.92-.15-5.22-.05-10.45-.05-15.68.25-.06.49-.13.74-.19.41.86.81,1.72,1.23,2.57,4.13,8.52,10.46,14.44,19.77,17.02,7.22,2,14.37,1.72,21.46-.32,18.67-5.36,30.96-20.21,32.38-39.6,1.22-16.68-3-31.55-16.15-42.89ZM1196.88,549.11c-.43,6.58-1.68,13.04-4.29,19.14-4.21,9.88-10.83,16.87-22.33,17.12-11.85.25-20.82-4.83-26.59-15.34-3.9-7.1-4.35-14.92-4.85-22.73-.13-1.99-.02-3.99-.02-5.99-.03,0-.05,0-.06,0-.01,0-.02,0,0,0,.01,0,.03,0,.06,0,.94-7.15.51-14.53,2.18-21.5,2.38-9.92,7.84-18.07,17.63-22.27,15.1-6.48,29.68.5,35,16.74,3.7,11.31,4.03,23.04,3.27,34.81Z"/>
  <path d="M878.64,536.43c1.56,0,2.83-.02,2.68-2.17-.49-6.94-1.64-13.72-5.01-19.92-11.85-21.77-41.07-28.29-61.63-13.68-11.93,8.49-17.66,20.53-18.91,34.79-2.34,26.88,13.99,46.84,36.59,51.44,12.67,2.58,24.58.85,34.94-7.44,7.07-5.65,11.54-13.02,13.52-21.85.14-.62-.36-1.38-.56-2.07-.45.5-.93.96-1.32,1.5-.18.25-.16.64-.25.96-4.84,17.71-19.7,28.6-37.84,27.74-13.18-.63-21.64-7.2-25.08-19.67-2.42-8.77-2.18-17.78-2.35-26.76-.04-2.28.66-3,2.98-2.97,10.33.12,20.66.05,30.99.05v.04c10.41,0,20.83-.01,31.24.02ZM838.96,534.43v.04c-7.66,0-15.32-.03-22.98.02-1.6.01-2.51-.28-2.41-2.17.41-8.01,1.26-15.92,4.57-23.35,6.22-13.95,24.25-18.53,36.46-9.24,5.16,3.93,7.32,9.64,8.29,15.73.88,5.48,1.1,11.07,1.68,16.6.2,1.89-.53,2.42-2.38,2.4-7.74-.09-15.49-.04-23.23-.04Z"/>
  <path d="M1043.16,556.49c-.33.54-.34,1.27-.51,1.91-4.23,15.51-15.84,25.43-31.83,27.2-16.79,1.86-28.49-6.49-31.38-23.16-1.3-7.5-1.22-15.23-1.87-22.84-.21-2.47.54-3.31,3.15-3.27,10.25.15,20.5.06,30.75.06h0c10.33.01,20.67-.04,31,.05,2.15.02,2.95-.52,2.86-2.79-.26-6.24-1.53-12.21-4.23-17.84-12.02-25.01-45.96-31.05-66.52-11.46-14.96,14.26-17.69,32.18-12.38,51.33,5.1,18.39,21.5,30.86,40.6,32.13,18.92,1.26,34.48-8.26,40.52-24.84.71-1.95,1.18-3.98,1.66-6,.08-.34-.32-.8-.5-1.2-.45.23-1.09.34-1.31.71ZM982.29,509.02c4.44-10.13,12.84-14.77,24.64-13.75,10.26.89,17.14,6.74,19.48,17.67,1.35,6.29,1.5,12.83,2.2,19.26.2,1.8-.67,2.26-2.33,2.24-7.74-.06-15.48-.03-23.22-.03v.09c-7.66,0-15.31-.02-22.97.01-1.38,0-2.43-.04-2.37-1.92.26-8.11,1.28-16.08,4.57-23.59Z"/>
  <path d="M659.59,523.63c0,14.97.04,29.94-.04,44.91-.01,2.55-.26,5.2-.98,7.63-2.07,6.97-8.64,11.32-16.05,10.96-7.9-.38-14.81-5.77-16.35-13.06-.46-2.21-1.3-3.25-3.53-3.97-7.25-2.35-10.93-10.65-8.31-17.87.28-.77.2-1.97-.23-2.64-2.27-3.54-3-7.29-2.44-11.44.13-1.01-.35-2.46-1.08-3.16-7.82-7.56-7.49-19.95.89-26.88,1.09-.9,1.52-1.55.94-3.07-2.56-6.77-.64-12.44,5.25-16.56.65-.46,1.26-1.53,1.24-2.3-.18-5.9,2.77-9.66,7.79-12.26,1.12-.58,2.25-1.63,2.79-2.75,3.19-6.64,10.98-10.74,18.01-9.27,7.29,1.52,11.94,7.15,12,15.09.12,15.55.03,31.1.03,46.65.03,0,.05,0,.08,0ZM654.6,532.6v-22.47c-2.09.33-4.58,2.08-5.4-.69-.77-2.6,2.21-2.74,3.83-3.7.66-.39,1.65-.92,1.72-1.49.22-1.8.08-3.65.08-5.85-1.18.59-1.76.9-2.35,1.18-5.47,2.61-12.12.89-15.56-4.08-1.63-2.35-2.52-5.03-1.68-7.78.3-.98,1.99-1.53,3.05-2.28.49.9,1.09,1.76,1.43,2.72.21.59-.02,1.32.04,1.98.29,3.69,3.56,6.38,7.68,6.33,4.09-.05,7.24-2.84,7.31-6.61.08-4.66.2-9.32.03-13.97-.22-5.91-5.35-10.25-11.25-9.78-4.33.34-8.63,3.44-9.18,6.53,2.39.65,4.77,1.29,7.17,1.94.17-.22.4-.39.46-.6.5-1.6,1.73-2.24,3.05-1.5.69.39,1,1.78,1.15,2.76.25,1.62.34,3.28.27,4.92-.05,1.09-.15,2.58-.83,3.15-1.31,1.09-2.36.02-3.21-1.19-3.27-4.64-8.9-6.19-14.13-3.95-3.98,1.7-6.17,6.27-3.87,10.03,1.41,2.31.87,3.07-1.96,3.57-2.52.44-4.59,1.56-5.83,3.85-1.18,2.17-1.43,4.48-.21,6.69,1.1,1.98,3.06,2.41,5.17,2.31,3.14-.15,4.93-1.93,5.58-5.31.15-.79.6-1.81,1.22-2.14.55-.29,1.89-.02,2.24.46.57.8.89,1.98.84,2.97-.23,4.4-4.82,8.22-10.04,8.26-2.37.02-4.16.2-6.3,1.95-4.38,3.59-6.01,7.8-5.43,13.13.68,6.27,6.76,11.22,12.72,10.47,4.14-.52,7.03-4.26,6.59-8.55-.38-3.78-3.28-5.86-7.51-5.41-1.08.12-2.69.81-2.68-1,0-.9,1.14-2.2,2.07-2.6,4-1.69,9.86.83,11.67,4.78,3.6,7.88-2.18,17.03-10.85,17.12-1.24.01-2.49-.44-3.71-.36-.62.05-1.62.74-1.72,1.27-.7,3.79,1.22,7.56,4.62,9.45,7.12,3.97,15.25-.56,15.4-8.63.08-4.25,1.94-7.31,5.82-9.09,4.2-1.93,8.24-1.53,12.49,1.21ZM625.99,566.36c.42-1.48.58-2.95,1.27-4.12.51-.86,1.64-1.58,2.63-1.83.38-.1,1.51,1.21,1.65,2,.5,2.66,2.14,4.28,4.39,5.39,1.71.85,3.57,1.4,5.25,2.28.65.34,1.54,1.53,1.38,1.85-.41.81-1.29,1.73-2.12,1.89-.96.19-2.15-.21-3.11-.64-2.38-1.08-4.69-2.32-7.24-3.61-.12,3.74,1.35,6.78,3.82,9.35,5.81,6.06,16.02,4.94,19.46-2.36,1.14-2.42,1.13-5.45,1.31-8.23.05-.82-.89-2.05-1.7-2.5-2.4-1.32-5.02-2.23-7.44-3.51-1.45-.76-2.8-1.79-4.01-2.91-1.09-1.02-1.37-2.6-.06-3.45.77-.5,2.23-.1,3.33.13.47.1.8.81,1.24,1.19,2.45,2.18,5.32,3.48,8.61,4.31v-10.36c-.79.45-1.27.92-1.79.96-.83.08-2.27.11-2.42-.25-.31-.76-.04-1.82.19-2.71.11-.41.64-.77,1.06-1.02,2.97-1.8,3.34-4.59,2.89-7.64-.54-3.63-4.07-6.36-7.69-6.08-3.71.29-6.11,2.86-5.92,6.91.26,5.48-2.5,8.96-6.99,11.38-4.32,2.33-8.85,2.8-13.48.96-1.28-.51-1.97-.41-2.35,1.07-1.34,5.26,2.08,10.52,7.85,11.52Z"/>
  <path d="M664.66,524.12c0-15.97-.07-31.95.03-47.92.04-6.62,4.35-11.97,10.65-13.82,7.52-2.21,16.06,1.92,19.25,9.19.41.92,1.32,1.9,2.24,2.28,5.39,2.24,8.46,6.7,8.58,12.61.02.76.41,1.89.98,2.19,5.25,2.76,7.7,9.78,5.62,15.85-.55,1.61-.24,2.51.98,3.63,7.83,7.21,8.05,18.83.68,26.5-.68.71-1.12,2-1.06,2.99.25,4.18-.23,8.11-2.53,11.74-.42.66-.54,1.74-.33,2.51,2.5,9.34-1.13,16.1-10.19,19.14-.76.25-1.52,1.4-1.72,2.27-2.28,9.81-11.38,15.61-21.18,13.4-6.67-1.5-11.75-7.08-12-13.89-.31-8.56-.21-17.13-.24-25.7-.03-7.65,0-15.31,0-22.96.08,0,.17,0,.25,0ZM707.41,538.17c-.88.19-1.6.38-2.33.49-8.34,1.33-15.33-4.92-14.66-13.07.52-6.29,6.82-11.02,12.29-9.21,1.41.47,2.78,1.17,2.4,2.95-.37,1.78-1.85,1.23-3.07,1.09-5.16-.56-8.42,3.41-6.9,8.39,1.58,5.16,7.67,7.37,12.7,4.61,8.58-4.71,9.06-17.18,1.04-22.82-1.95-1.37-3.65-1.87-6-1.73-4.26.25-7.6-1.84-9.69-5.48-.71-1.23-.78-3.02-.59-4.48.08-.63,1.53-1.21,2.46-1.5.23-.07.93,1.03,1.26,1.68.26.5.22,1.14.4,1.69.97,2.89,4.41,4.6,7.79,3.89,2.72-.57,3.92-2.47,3.7-5.87-.26-4.01-2.08-5.79-7.11-6.95-2.76-.64-2.95-1.04-1.62-3.46,2.17-3.92.49-8.42-3.82-10.28-5.17-2.23-10.57-.66-14.03,4.19-.91,1.27-2.07,2.04-3.31,1.15-.66-.47-.78-1.96-.79-2.99-.01-1.96.14-3.93.41-5.86.11-.77.61-2,1.09-2.09.91-.16,1.99.25,2.88.66.4.18.54.95.81,1.48,2.35-.65,4.56-1.25,6.95-1.91-.28-.64-.43-1.19-.74-1.64-2.53-3.71-7.62-5.68-11.86-4.61-4.5,1.13-7.46,4.56-7.79,9.52-.28,4.23-.27,8.48-.26,12.72,0,4.53,3.14,7.64,7.64,7.78,4.34.14,7.22-2.53,7.65-7.1.05-.5-.07-1.06.14-1.48.33-.68.85-1.77,1.3-1.78.86-.02,1.98.4,2.53,1.03.51.59.58,1.7.55,2.58-.22,8.11-8.28,13.1-16.45,10.22-1.06-.38-2.1-.83-3.2-1.27-.74,5.51-.67,5.65,3.54,7.84.37.19.85.34,1.04.66.43.72,1.2,1.8.96,2.25-.38.69-1.47,1.25-2.31,1.35-1,.12-2.06-.32-3.27-.54v22.68c.5-.22.8-.31,1.07-.47,9.1-5.35,16.71-1.25,17.31,9.14.11,1.91,1,4.18,2.31,5.53,3.28,3.37,7.55,4.15,12.01,2.65,4.78-1.6,7.26-6.88,5.54-11.64ZM693.56,568.38c-.85.78-1.36,1.51-2.06,1.86-2.72,1.35-5.46,2.72-8.31,3.73-.63.22-1.77-.99-2.68-1.54.55-.8.96-1.75,1.68-2.34.6-.49,1.57-.49,2.35-.78,3.37-1.24,6.27-3.01,7.87-6.47.42-.9,1.63-2.3,2.04-2.17,1.01.33,1.86,1.36,2.59,2.25.38.47.45,1.24.52,1.9.16,1.53.98,1.68,2.27,1.32,4.19-1.18,7.23-6.54,6.06-10.72-.44-1.56-1.12-2.17-2.88-1.51-3.46,1.28-7.07,1.25-10.57.19-5.99-1.82-9.25-6.38-9.4-12.87-.11-4.68-3.1-7.4-7.28-6.63-3.63.67-6.17,3.53-6.56,7.2-.35,3.22,1.27,5.31,3.61,7.2.61.49.66,1.67.97,2.54-.89.21-1.78.54-2.68.57-.59.02-1.2-.39-1.87-.63v10.18c.9-.28,1.59-.36,2.13-.68,2.49-1.46,4.97-2.92,7.38-4.51,1.26-.83,2.66-1.79,3.68-.33.5.73.13,2.56-.49,3.44-.82,1.16-2.17,2.07-3.47,2.75-2.5,1.31-5.16,2.32-7.69,3.58-.71.35-1.66,1.09-1.73,1.74-1.36,11.89,7.05,16.68,15.16,14.64,5.78-1.45,10.51-8.07,9.41-13.89Z"/>
  <path class="cls-1" d="M689.23,510.66c-.34-1.35-.4-2.88-1.1-4-.48-.76-1.85-.95-2.83-1.4-.36.87-1.11,1.78-1.02,2.6.61,5.49-.14,6.99-4.86,9.68-.67.38-1.46,1.79-1.24,2.21.45.84,1.53,1.76,2.42,1.83,1.03.09,2.3-.48,3.19-1.13,3.23-2.4,5.13-5.6,5.45-9.79Z"/>
  <path d="M634.4,510.37c.83-1.53,1.4-3.31,2.56-4.52,1.24-1.29,2.74-.43,2.8,1.4.02.66-.08,1.32-.18,1.97-.59,3.77.96,6.4,4.27,8.14,1.14.6,2.7,1.12,1.8,2.89-.81,1.59-2.24,1.37-3.68.86-4.02-1.42-7.08-5.94-7.56-10.75Z"/>
  <path d="M689.23,510.66c-.31,4.18-2.22,7.38-5.45,9.79-.89.66-2.15,1.22-3.19,1.13-.89-.08-1.97-1-2.42-1.83-.22-.42.57-1.83,1.24-2.21,4.72-2.69,5.47-4.19,4.86-9.68-.09-.82.66-1.73,1.02-2.6.97.45,2.35.64,2.83,1.4.7,1.12.77,2.65,1.1,4Z"/>
</svg>