<svg width="121" height="120" viewBox="0 0 121 120" fill="none" xmlns="http://www.w3.org/2000/svg">
<path d="M27.5882 -1.2484C29.2215 -1.31065 30.8629 -1.24956 32.4973 -1.24942L93.4089 -1.25293C94.3199 -1.25605 95.2794 -1.31796 96.1831 -1.21326C102.144 -0.522638 101.19 5.77721 101.185 9.97004L101.183 51.8665C101.184 57.4182 101.12 62.9777 101.212 68.5282C101.311 74.5667 97.1792 75.3039 92.2574 75.2951L61.8034 75.2903C61.1481 76.3291 60.5545 77.4067 59.9122 78.4531C57.8006 81.8923 57.4477 81.1891 57.4891 85.2018L57.4964 90.9506C57.497 92.1352 57.8219 94.0831 57.0088 95.0825C55.872 95.6948 49.2785 95.3428 47.6942 95.3416L23.5667 95.3453C18.0434 95.3595 17.5623 96.6186 17.5614 90.7427L17.5654 84.6363C13.2366 84.6193 9.22221 85.4624 6.4624 81.2551C4.99682 79.0212 5.25992 76.7542 5.73457 74.2623L6.31797 71.2807C2.82525 70.4305 2.77068 68.3306 2.77396 65.1258L2.77804 60.9137C-3.93087 60.0641 -6.14076 59.0166 -3.53572 52.3457L-0.513603 44.3178C0.809041 40.725 -0.0103774 41.4098 -0.17962 37.6766C-0.835462 23.2101 8.34145 8.43309 21.9505 3.26302C23.0131 0.639684 24.6086 -0.960357 27.5882 -1.2484ZM21.8106 6.44841C9.62379 12.2949 1.73245 24.9348 2.86091 38.6412C3.2336 43.168 3.80799 41.2685 2.14449 45.7661L-0.479758 52.8614C-0.891621 53.9566 -1.42591 55.0497 -1.74406 56.1726C-0.709663 59.0523 4.71843 56.7552 5.63205 58.8027C6.44909 60.6337 4.89062 67.55 6.46835 68.2487C8.57424 69.1813 10.003 67.9443 9.33436 71.3733L8.71811 74.4749C8.0608 77.7507 8.18286 81.3522 12.581 81.7459C13.8526 81.8597 20.0406 81.3712 20.458 82.3723C20.6973 82.947 20.5518 91.1661 20.552 92.3238H33.2715L47.4702 92.3244C49.8086 92.3249 52.1841 92.4207 54.518 92.3238L54.5123 85.7558C54.5106 79.2293 55.2393 80.8518 58.4446 75.2903C51.2159 75.211 43.9755 75.2863 36.7453 75.2883L31.2291 75.294C22.1258 75.3002 21.9462 72.7474 21.9474 65.1839L21.9502 12.8094C21.9502 11.9536 22.1618 6.86443 21.8106 6.44841ZM75.5481 1.68989C75.4592 1.69447 75.3201 1.667 75.2623 1.74437C74.9412 2.176 75.2476 21.6904 75.1383 24.0659H98.0078L98.1964 24.0475C98.4216 23.6723 98.3258 7.02331 98.2732 4.84463C98.1825 1.10549 94.984 1.67949 92.3168 1.68603L79.3365 1.68691C78.0797 1.68598 76.8024 1.63786 75.5481 1.68989ZM50.0646 1.68989V24.0659H72.2182C72.4312 16.6177 72.067 9.14507 72.2182 1.68989H50.0646ZM27.2877 1.68989C24.6191 2.30667 24.895 4.41586 24.9134 6.54838L24.9185 24.0659H44.7124H47.0989V1.68989L29.4659 1.68603C28.751 1.68408 27.9989 1.63359 27.2877 1.68989ZM75.1383 51.1101V72.422L93.2423 72.4316C94.7476 72.4424 96.1106 72.6565 97.2992 71.5458C98.3944 70.3396 98.2899 69.2124 98.282 67.6899L98.2723 51.1101H75.1383ZM75.1383 27.039V48.1362H98.2723V27.039H75.1383ZM50.0646 51.1101V72.422H72.2182C72.2587 70.0159 72.2179 67.6039 72.2171 65.1969L72.2182 51.1101H50.0646ZM24.9185 51.1101L24.9221 64.27C24.9233 66.9029 23.9363 71.6879 27.6395 72.3135C29.2543 72.5865 32.2327 72.4254 33.9385 72.4254L47.0989 72.422V51.1101H24.9185ZM24.9185 27.039V48.1362H47.0989V27.039H24.9185ZM50.0646 27.039V48.1362H72.2182V27.039H50.0646Z" fill="#7079C6"/>
<path d="M60.7802 30.6181C69.8919 29.8164 70.5464 44.2518 61.4757 44.3093C52.4871 44.5022 51.5713 31.5564 60.7802 30.6181Z" fill="#7079C6"/>
<path d="M60.7797 33.4976C65.0929 33.1563 67.5387 39.0591 61.803 41.5878C56.0712 41.4856 55.624 34.3639 60.7797 33.4976Z" fill="#ADB3F5"/>
<path d="M31.434 30.8242L37.8701 30.8223C39.5741 30.8208 42.584 30.1587 42.7369 32.3558C42.8802 34.4133 42.9765 41.0136 42.665 42.9153C42.5262 43.7627 41.6961 44.0003 40.942 44.0291L34.2128 44.0328C32.8868 44.0337 31.091 44.386 29.9146 43.6454C29.2726 42.5324 29.4094 33.3932 29.5297 31.5206C30.1788 30.9726 30.6065 30.8656 31.434 30.8242Z" fill="#7079C6"/>
<path d="M32.4116 33.6973H39.8463V41.139C39.6313 41.2404 33.2423 41.1387 32.4116 41.139V33.6973Z" fill="#ADB3F5"/>
<path d="M35.9681 54.7549C45.6763 54.7506 45.1156 68.062 36.7047 68.6703C27.0387 68.8541 26.8144 55.4082 35.9681 54.7549Z" fill="#7079C6"/>
<path d="M35.6435 57.7101C41.4158 57.3184 41.7211 65.3985 36.7047 65.5503C33.1542 67.4319 29.0896 59.1187 35.6435 57.7101Z" fill="#ADB3F5"/>
<path d="M55.9692 55.0988L62.4769 55.0965C63.74 55.0957 65.045 55.0328 66.3036 55.1444C68.2404 55.3157 67.7046 57.1826 67.6995 58.5966L67.6814 63.9112C67.6819 65.3958 68.41 68.0811 66.3228 68.4201L59.4656 68.4266C55.5274 68.4275 54.4915 69.3776 54.5096 64.9885L54.5288 60.9563C54.5277 59.1319 53.6631 55.4205 55.9692 55.0988Z" fill="#7079C6"/>
<path d="M57.4888 58.0415C59.9204 57.9727 62.3678 58.0602 64.8019 58.0415V65.5495H57.4888C57.546 64.6517 57.4967 63.7421 57.4944 62.8423L57.4888 58.0415Z" fill="#ADB3F5"/>
<path d="M85.7733 30.6188C88.9975 29.5886 93.0688 33.5959 93.3042 36.9309C93.5526 40.4534 90.8854 44.0798 87.2368 44.31L87.0083 44.3429C78.1548 45.5519 76.0319 31.6658 85.7733 30.6188Z" fill="#7079C6"/>
<path d="M85.7731 33.4974C90.6567 32.8539 92.5737 39.7346 86.9362 41.5876C81.7089 42.2792 80.1997 34.6857 85.7731 33.4974Z" fill="#ADB3F5"/>
<path d="M88.7858 53.9717C93.3678 53.9762 94.5657 57.5449 93.3717 61.4151C94.9293 66.7608 92.3377 70.2431 86.4839 68.4201C85.8249 68.5651 85.2112 68.8285 84.5395 68.9517C80.011 69.0539 78.0249 65.2803 79.8289 61.4151L79.7499 61.2455C77.6041 56.5641 81.6205 52.6689 86.4839 54.5423C87.2537 54.194 87.9467 54.0572 88.7858 53.9717Z" fill="#7079C6"/>
<path d="M83.7617 56.9287C84.9358 56.9814 85.7432 57.7891 86.4841 58.6143C87.1655 57.8706 87.91 57.0647 88.9888 56.9978C91.8157 56.8225 90.9448 59.8601 89.4359 61.4152C90.7993 62.9895 92.1258 65.0215 89.4359 65.9901C88.2184 66.0464 87.2881 65.3333 86.4841 64.4849C83.0262 68.0442 79.9345 64.3407 83.7617 61.4152C82.1191 60.0867 80.8469 57.5098 83.7617 56.9287Z" fill="#7A82CD"/>
<path d="M36.2243 6.04255C38.1289 5.4634 39.4829 4.96354 41.4183 5.88678C44.2707 7.24758 44.9413 10.5305 43.6029 13.2339C45.3282 16.6157 43.4004 20.4851 39.6064 20.8594C38.4152 20.9246 37.4662 20.687 36.4529 20.0603C31.3388 22.5547 26.8084 18.2285 29.0913 13.2339C27.5493 9.55228 28.8143 6.00346 32.9851 5.40506C34.1623 5.3201 35.136 5.62086 36.2243 6.04255Z" fill="#7079C6"/>
<path d="M33.2712 8.28385C34.1709 8.20569 34.5609 8.4753 35.2304 9.01537C36.98 10.4274 37.2536 8.39855 38.8474 8.27508C40.0825 8.17907 41.362 9.15499 41.4067 10.4198C41.4478 11.5761 40.5631 12.4401 39.8463 13.2334C41.5098 14.6554 42.3798 17.1583 39.6064 18.0512C37.6662 18.1645 38.0754 17.599 36.8044 16.8604C36.0491 16.4214 31.9721 20.2194 31.321 16.1459C31.1092 14.8188 31.9381 14.2453 32.6291 13.3039L32.6801 13.2334C31.6538 11.5577 29.7487 9.31301 33.2712 8.28385Z" fill="#7A82CD"/>
<path d="M55.9691 6.04218C58.4426 6.0048 60.9243 6.03567 63.3981 6.04983C64.6756 6.05719 67.1721 5.46133 67.6139 7.11439C67.8475 7.98892 67.7642 16.3731 67.6674 17.6597C67.5938 18.6345 67.3213 19.1349 66.3227 19.3935C64.2092 19.5252 58.2421 19.6291 56.1606 19.3697C53.8904 19.0868 54.5112 15.242 54.5112 13.6705C54.5112 11.8082 54.7361 8.64737 54.5341 6.91331L54.5177 6.78078C54.9612 6.38599 55.3832 6.15291 55.9691 6.04218Z" fill="#7079C6"/>
<path d="M57.4888 8.98423C59.9184 8.94798 62.3726 8.93297 64.8019 8.98423V16.4922C63.5371 16.4817 58.4579 16.7236 57.4888 16.4922V8.98423Z" fill="#ADB3F5"/>
<path d="M82.6113 5.68576C84.0726 5.4946 85.1788 5.83756 86.4841 6.44843C89.5656 4.90526 93.0074 5.68916 94.1034 9.25327C94.5871 10.8259 94.1099 12.0125 93.3719 13.3875C95.1717 16.5574 93.718 19.6899 90.3861 20.8595C88.9092 21.0555 87.7758 20.7601 86.4841 20.0603C81.3624 22.5902 76.9674 18.5126 79.4139 13.234C77.186 10.3524 79.2882 6.4 82.6113 5.68576Z" fill="#7079C6"/>
<path d="M83.2599 8.50036C84.6408 8.45873 84.9971 9.40123 85.9843 10.0546C86.9231 10.6754 87.6917 8.81103 89.1035 8.52075L89.208 8.50036C92.3068 9.05855 91.673 11.734 89.436 13.2332C91.0848 14.8659 92.4688 16.7101 89.7299 18.0511C88.2162 18.2284 87.5091 17.1123 86.4841 16.2479C85.5266 16.7815 84.8705 17.9661 83.6683 18.0089C82.5873 18.0471 81.5032 17.0471 81.5094 15.9548C81.5159 14.8183 82.506 13.9597 83.2599 13.2332C82.1503 11.858 79.5649 9.66489 83.2599 8.50036Z" fill="#7A82CD"/>
</svg>
