<svg width="4" height="19" viewBox="0 0 4 19" fill="none" xmlns="http://www.w3.org/2000/svg">
<path d="M3.5 1.5C3.5 2.32843 2.82843 3 2 3C1.17157 3 0.5 2.32843 0.5 1.5C0.5 0.671573 1.17157 0 2 0C2.82843 0 3.5 0.671573 3.5 1.5Z" fill="#98A2B3"/>
<path d="M3.5 9.5C3.5 10.3284 2.82843 11 2 11C1.17157 11 0.5 10.3284 0.5 9.5C0.5 8.67157 1.17157 8 2 8C2.82843 8 3.5 8.67157 3.5 9.5Z" fill="#98A2B3"/>
<path d="M2 19C2.82843 19 3.5 18.3284 3.5 17.5C3.5 16.6716 2.82843 16 2 16C1.17157 16 0.5 16.6716 0.5 17.5C0.5 18.3284 1.17157 19 2 19Z" fill="#98A2B3"/>
</svg>
