<svg width="30" height="30" viewBox="0 0 30 30" fill="none" xmlns="http://www.w3.org/2000/svg">
<g clip-path="url(#clip0_3569_2290)">
<path d="M21.25 13.75C21.25 17.2 18.45 20 15 20C11.55 20 8.75 17.2 8.75 13.75H6.25C6.25 18.1625 9.5125 21.7875 13.75 22.4V26.25H16.25V22.4C20.4875 21.7875 23.75 18.1625 23.75 13.75H21.25Z" fill="#EB5017"/>
<path d="M15 17.5C17.075 17.5 18.75 15.825 18.75 13.75V6.25C18.75 4.175 17.075 2.5 15 2.5C12.925 2.5 11.25 4.175 11.25 6.25V13.75C11.25 15.825 12.925 17.5 15 17.5ZM13.75 6.25C13.75 5.5625 14.3125 5 15 5C15.6875 5 16.25 5.5625 16.25 6.25V13.75C16.25 14.4375 15.6875 15 15 15C14.3125 15 13.75 14.4375 13.75 13.75V6.25Z" fill="#EB5017"/>
<path d="M15 17.5C17.075 17.5 18.75 15.825 18.75 13.75V6.25C18.75 4.175 17.075 2.5 15 2.5C12.925 2.5 11.25 4.175 11.25 6.25V13.75C11.25 15.825 12.925 17.5 15 17.5Z" fill="#EB5017"/>
</g>
<defs>
<clipPath id="clip0_3569_2290">
<rect width="30" height="30" fill="white"/>
</clipPath>
</defs>
</svg>
