<svg width="20" height="20" viewBox="0 0 20 20" fill="none" xmlns="http://www.w3.org/2000/svg">
<path d="M16.7415 9.75901L10.1772 16.3233C9.373 17.1275 8.28231 17.5793 7.14503 17.5793C6.00776 17.5793 4.91706 17.1275 4.11289 16.3233C3.30871 15.5191 2.85693 14.4284 2.85693 13.2912C2.85693 12.1539 3.30871 11.0632 4.11289 10.259L10.6772 3.69472C11.2133 3.15861 11.9404 2.85742 12.6986 2.85742C13.4568 2.85742 14.1839 3.15861 14.72 3.69472C15.2561 4.23084 15.5573 4.95797 15.5573 5.71615C15.5573 6.47434 15.2561 7.20147 14.72 7.73758L8.1486 14.3019C7.88054 14.5699 7.51698 14.7205 7.13789 14.7205C6.7588 14.7205 6.39523 14.5699 6.12717 14.3019C5.85912 14.0338 5.70852 13.6702 5.70852 13.2912C5.70852 12.9121 5.85912 12.5485 6.12717 12.2804L12.1915 6.2233" stroke="#797C80" stroke-linecap="round" stroke-linejoin="round"/>
</svg>
