<svg width="24" height="24" viewBox="0 0 24 24" fill="none" xmlns="http://www.w3.org/2000/svg">
<path fill-rule="evenodd" clip-rule="evenodd" d="M8.91645 2.43037C9.13734 2.93656 8.90606 3.52597 8.39988 3.74686C7.05247 4.33485 5.86961 5.24395 4.95472 6.39469C4.03982 7.54543 3.42075 8.90277 3.15161 10.348C2.88248 11.7933 2.97149 13.2825 3.41085 14.6854C3.85021 16.0883 4.62655 17.3623 5.67199 18.3959C6.71744 19.4294 8.00016 20.1912 9.40801 20.6145C10.8159 21.0378 12.306 21.1098 13.7481 20.8242C15.1902 20.5385 16.5403 19.904 17.6806 18.976C18.8208 18.0481 19.7163 16.8549 20.2889 15.5009C20.504 14.9922 21.0907 14.7542 21.5994 14.9693C22.1081 15.1844 22.3461 15.7711 22.131 16.2798C21.4312 17.9347 20.3366 19.393 18.943 20.5272C17.5494 21.6614 15.8992 22.437 14.1366 22.7861C12.3741 23.1351 10.5528 23.0472 8.83212 22.5298C7.11141 22.0124 5.54364 21.0814 4.26588 19.8181C2.98811 18.5549 2.03925 16.9978 1.50225 15.2831C0.965257 13.5685 0.856473 11.7483 1.18541 9.9819C1.51435 8.21546 2.271 6.55649 3.38921 5.15003C4.50741 3.74357 5.95313 2.63245 7.59996 1.9138C8.10614 1.69291 8.69556 1.92418 8.91645 2.43037Z" />
<path fill-rule="evenodd" clip-rule="evenodd" d="M11.2929 1.29289C11.4804 1.10536 11.7348 1 12 1C13.4445 1 14.8749 1.28452 16.2095 1.83733C17.5441 2.39013 18.7567 3.20038 19.7782 4.22183C20.7996 5.24327 21.6099 6.4559 22.1627 7.79048C22.7155 9.12506 23 10.5555 23 12C23 12.5523 22.5523 13 22 13H12C11.4477 13 11 12.5523 11 12V2C11 1.73478 11.1054 1.48043 11.2929 1.29289ZM13 3.05573V11H20.9443C20.8505 10.1614 20.6391 9.33849 20.3149 8.55585C19.8626 7.46392 19.1997 6.47177 18.364 5.63604C17.5282 4.80031 16.5361 4.13738 15.4442 3.68508C14.6615 3.3609 13.8386 3.14949 13 3.05573Z" />
</svg>
