<svg width="18" height="18" viewBox="0 0 18 18" fill="none" xmlns="http://www.w3.org/2000/svg">
<path fill-rule="evenodd" clip-rule="evenodd" d="M1.71261 0C2.18599 0 2.56975 0.383756 2.56975 0.857143V1.71429C2.56975 2.18767 2.18599 2.57143 1.71261 2.57143C1.23923 2.57143 0.855469 2.18767 0.855469 1.71429V0.857143C0.855469 0.383756 1.23923 0 1.71261 0ZM1.71429 4.28516C2.66106 4.28516 3.42857 5.05267 3.42857 5.99944C3.42857 6.94622 2.66106 7.71373 1.71429 7.71373C0.767511 7.71373 0 6.94622 0 5.99944C0 5.05267 0.767511 4.28516 1.71429 4.28516ZM16.2846 6.85742C17.2314 6.85742 17.9989 7.62493 17.9989 8.57171C17.9989 9.51851 17.2314 10.286 16.2846 10.286C15.3378 10.286 14.5703 9.51851 14.5703 8.57171C14.5703 7.62493 15.3378 6.85742 16.2846 6.85742ZM8.56975 9.42773C9.51655 9.42773 10.284 10.1952 10.284 11.142C10.284 12.0888 9.51655 12.8563 8.56975 12.8563C7.62298 12.8563 6.85547 12.0888 6.85547 11.142C6.85547 10.1952 7.62298 9.42773 8.56975 9.42773ZM8.57199 14.5723C9.04539 14.5723 9.42913 14.956 9.42913 15.4294V17.1437C9.42913 17.6171 9.04539 18.0008 8.57199 18.0008C8.0986 18.0008 7.71484 17.6171 7.71484 17.1437V15.4294C7.71484 14.956 8.0986 14.5723 8.57199 14.5723ZM1.71261 9.42773C2.18599 9.42773 2.56975 9.81148 2.56975 10.2849V17.142C2.56975 17.6154 2.18599 17.9992 1.71261 17.9992C1.23923 17.9992 0.855469 17.6154 0.855469 17.142V10.2849C0.855469 9.81148 1.23923 9.42773 1.71261 9.42773ZM16.2868 0C16.7602 0 17.144 0.383756 17.144 0.857143V4.28571C17.144 4.7591 16.7602 5.14286 16.2868 5.14286C15.8134 5.14286 15.4297 4.7591 15.4297 4.28571V0.857143C15.4297 0.383756 15.8134 0 16.2868 0ZM16.2868 11.1426C16.7602 11.1426 17.144 11.5263 17.144 11.9997V17.1426C17.144 17.616 16.7602 17.9997 16.2868 17.9997C15.8134 17.9997 15.4297 17.616 15.4297 17.1426V11.9997C15.4297 11.5263 15.8134 11.1426 16.2868 11.1426ZM8.57199 0C9.04539 0 9.42913 0.383756 9.42913 0.857143V6.85714C9.42913 7.33053 9.04539 7.71429 8.57199 7.71429C8.0986 7.71429 7.71484 7.33053 7.71484 6.85714V0.857143C7.71484 0.383756 8.0986 0 8.57199 0Z" fill="#0062FF"/>
</svg>
