<svg width="665" height="179" viewBox="0 0 665 179" fill="none" xmlns="http://www.w3.org/2000/svg">
<path d="M502.76 74.1501V54.6601C497.66 57.3401 492.92 59.9001 488.11 62.3201C486.64 63.0601 486.06 63.9401 486.09 65.5901C486.2 70.4101 486.14 75.2401 486.14 80.0601C486.11 101.36 486.11 122.65 486.01 143.95C486.01 146.01 486.6 146.75 488.68 146.67C492.26 146.53 495.84 146.59 499.43 146.59C502.81 146.59 502.77 146.59 502.79 143.18C502.91 124.88 502.83 106.58 503.3 88.2901C503.44 82.7201 504.48 76.9901 506.16 71.6601C509.35 61.5701 518.21 55.7701 528.21 56.3601C531.71 56.5701 534.92 57.6201 537.45 60.1901C538.85 61.6101 539.39 63.3501 538.61 65.2301C537.83 67.1201 536.21 67.9301 534.2 67.8901C532.79 67.8601 531.28 67.3601 529.99 67.7201C528.26 68.1901 526.2 68.8901 525.17 70.2001C522.73 73.2901 524.32 79.6101 527.68 81.7401C532.66 84.9101 540.44 82.5901 542.84 77.2201C546.34 69.4001 541.87 58.6301 533.85 55.5601C525.94 52.5301 516.28 55.0501 509.86 61.7501C506.46 65.3001 504.3 69.5201 502.75 74.1501H502.76Z" fill="black"/>
<path d="M181.219 146.59C181.219 145.27 181.219 144.29 181.219 143.31C181.209 127.59 180.989 111.87 181.289 96.15C181.419 89.29 182.029 82.3199 183.449 75.6199C185.549 65.7199 191.259 58.5599 201.839 56.6099C206.679 55.7199 211.339 56.4299 215.169 59.8999C216.869 61.4399 217.419 63.3899 216.499 65.5599C215.609 67.6699 213.779 68.0599 211.729 67.9199C210.399 67.8299 208.969 67.4199 207.769 67.7799C206.119 68.2699 204.139 68.9899 203.199 70.2699C200.599 73.8299 202.699 80.3999 206.699 82.3099C211.809 84.7399 218.299 82.3599 220.599 77.1899C224.809 67.7699 218.829 56.4899 208.689 54.7199C197.289 52.7399 186.059 60.0199 182.189 71.9099C181.929 72.7199 181.649 73.5199 181.379 74.3199C181.229 74.2799 181.089 74.2299 180.939 74.1899V54.8999C176.089 57.4699 171.579 59.9499 166.979 62.2499C165.269 63.0999 164.609 64.1299 164.619 66.0899C164.699 81.1399 164.649 96.1999 164.639 111.25C164.639 122.15 164.639 133.04 164.649 143.94C164.649 145.14 164.329 146.6 166.319 146.6C171.139 146.6 175.959 146.6 181.209 146.6L181.219 146.59Z" fill="black"/>
<path d="M308.84 55.5004C310.7 59.9504 312.42 63.9004 314 67.9004C324.03 93.2604 334.06 118.62 344.01 144.01C344.77 145.95 345.78 146.88 347.86 146.6C348.6 146.5 349.37 146.49 350.1 146.6C352.42 146.94 353.42 145.85 354.23 143.72C363.59 119.17 373.07 94.6704 382.5 70.1504C384.34 65.3604 386.13 60.5504 387.97 55.6604C385.82 54.8204 385.64 56.3104 385.22 57.4004C375.95 81.2704 366.7 105.14 357.43 129.02C357.12 129.82 356.73 130.59 356.15 131.88C355.64 130.75 355.34 130.2 355.12 129.62C349.25 114.15 343.37 98.6904 337.51 83.2204C334.27 74.6704 331.07 66.1004 327.76 57.5804C327.44 56.7504 326.43 55.6304 325.72 55.6104C320.24 55.4404 314.75 55.5204 308.83 55.5204L308.84 55.5004Z" fill="black"/>
<path d="M626.419 64.6202C617.929 57.2902 608.019 53.6002 596.769 54.2102C582.589 54.9802 573.779 63.1202 568.299 75.5702C568.089 76.0502 567.829 76.5001 567.599 76.9701C567.399 76.9401 567.199 76.9102 566.999 76.8802C566.999 74.8602 566.999 72.8402 566.999 70.8302C566.989 55.6902 566.939 40.5502 566.999 25.4002C566.999 23.2702 566.289 22.7002 564.249 22.7902C560.669 22.9502 557.079 23.0002 553.509 22.8302C550.989 22.7002 550.279 23.5102 550.289 26.0602C550.399 46.5302 550.349 66.9902 550.349 87.4602C550.349 106.18 550.399 124.9 550.319 143.62C550.319 145.91 550.949 146.7 553.269 146.6C556.849 146.44 560.439 146.47 564.009 146.65C566.269 146.76 567.109 146.07 567.039 143.73C566.889 138.51 566.989 133.28 566.989 128.05C567.239 127.99 567.479 127.92 567.729 127.86C568.139 128.72 568.539 129.58 568.959 130.43C573.089 138.95 579.419 144.87 588.729 147.45C595.949 149.45 603.099 149.17 610.189 147.13C628.859 141.77 641.149 126.92 642.569 107.53C643.789 90.8502 639.569 75.9802 626.419 64.6402V64.6202ZM624.879 110.11C624.449 116.69 623.199 123.15 620.589 129.25C616.379 139.13 609.759 146.12 598.259 146.37C586.409 146.62 577.439 141.54 571.669 131.03C567.769 123.93 567.319 116.11 566.819 108.3C566.689 106.31 566.799 104.31 566.799 102.31C566.769 102.31 566.749 102.31 566.739 102.31C566.729 102.31 566.719 102.31 566.739 102.31C566.749 102.31 566.769 102.31 566.799 102.31C567.739 95.1602 567.309 87.7802 568.979 80.8102C571.359 70.8902 576.819 62.7402 586.609 58.5402C601.709 52.0602 616.289 59.0402 621.609 75.2802C625.309 86.5902 625.639 98.3202 624.879 110.09V110.11Z" fill="black"/>
<path d="M306.64 97.4301C308.2 97.4301 309.47 97.4101 309.32 95.2601C308.83 88.3201 307.68 81.5401 304.31 75.3401C292.46 53.5701 263.24 47.0501 242.68 61.6601C230.75 70.1501 225.02 82.1901 223.77 96.4501C221.43 123.33 237.76 143.29 260.36 147.89C273.03 150.47 284.94 148.74 295.3 140.45C302.37 134.8 306.84 127.43 308.82 118.6C308.96 117.98 308.46 117.22 308.26 116.53C307.81 117.03 307.33 117.49 306.94 118.03C306.76 118.28 306.78 118.67 306.69 118.99C301.85 136.7 286.99 147.59 268.85 146.73C255.67 146.1 247.21 139.53 243.77 127.06C241.35 118.29 241.59 109.28 241.42 100.3C241.38 98.02 242.08 97.3001 244.4 97.3301C254.73 97.4501 265.06 97.3801 275.39 97.3801V97.42C285.8 97.42 296.22 97.4101 306.63 97.4401L306.64 97.4301ZM266.96 95.4301V95.47C259.3 95.47 251.64 95.4401 243.98 95.4901C242.38 95.5001 241.47 95.2101 241.57 93.3201C241.98 85.3101 242.83 77.4001 246.14 69.9701C252.36 56.0201 270.39 51.4401 282.6 60.7301C287.76 64.6601 289.92 70.3701 290.89 76.4601C291.77 81.9401 291.99 87.5301 292.57 93.0601C292.77 94.9501 292.04 95.4801 290.19 95.4601C282.45 95.3701 274.7 95.42 266.96 95.42V95.4301Z" fill="black"/>
<path d="M471.159 117.49C470.829 118.03 470.819 118.76 470.649 119.4C466.419 134.91 454.809 144.83 438.819 146.6C422.029 148.46 410.329 140.11 407.439 123.44C406.139 115.94 406.219 108.21 405.569 100.6C405.359 98.1303 406.109 97.2904 408.719 97.3304C418.969 97.4804 429.219 97.3904 439.469 97.3904C449.799 97.4004 460.139 97.3504 470.469 97.4404C472.619 97.4604 473.419 96.9204 473.329 94.6504C473.069 88.4104 471.799 82.4404 469.099 76.8104C457.079 51.8004 423.139 45.7604 402.579 65.3504C387.619 79.6104 384.889 97.5304 390.199 116.68C395.299 135.07 411.699 147.54 430.799 148.81C449.719 150.07 465.279 140.55 471.319 123.97C472.029 122.02 472.499 119.99 472.979 117.97C473.059 117.63 472.659 117.17 472.479 116.77C472.029 117 471.389 117.11 471.169 117.48L471.159 117.49ZM410.289 70.0203C414.729 59.8903 423.129 55.2504 434.929 56.2704C445.189 57.1604 452.069 63.0104 454.409 73.9404C455.759 80.2304 455.909 86.7704 456.609 93.2004C456.809 95.0004 455.939 95.4604 454.279 95.4404C446.539 95.3804 438.799 95.4103 431.059 95.4103V95.5004C423.399 95.5004 415.749 95.4804 408.089 95.5104C406.709 95.5104 405.659 95.4704 405.719 93.5904C405.979 85.4804 406.999 77.5104 410.289 70.0004V70.0203Z" fill="black"/>
<path d="M87.59 84.6299C87.59 99.5999 87.63 114.57 87.55 129.54C87.54 132.09 87.29 134.74 86.57 137.17C84.5 144.14 77.93 148.49 70.52 148.13C62.62 147.75 55.71 142.36 54.17 135.07C53.71 132.86 52.87 131.82 50.64 131.1C43.39 128.75 39.71 120.45 42.33 113.23C42.61 112.46 42.53 111.26 42.1 110.59C39.83 107.05 39.1 103.3 39.66 99.1499C39.79 98.1399 39.31 96.6899 38.58 95.9899C30.76 88.4299 31.09 76.0399 39.47 69.1099C40.56 68.2099 40.99 67.5599 40.41 66.0399C37.85 59.2699 39.77 53.5999 45.66 49.4799C46.31 49.0199 46.92 47.9499 46.9 47.1799C46.72 41.2799 49.67 37.5199 54.69 34.9199C55.81 34.3399 56.94 33.2899 57.48 32.1699C60.67 25.5299 68.46 21.4299 75.49 22.8999C82.78 24.4199 87.43 30.0499 87.49 37.9899C87.61 53.5399 87.52 69.0899 87.52 84.6399C87.55 84.6399 87.57 84.6399 87.6 84.6399L87.59 84.6299ZM82.6 93.5999V71.1299C80.51 71.4599 78.02 73.2099 77.2 70.4399C76.43 67.8399 79.4101 67.6999 81.0301 66.7399C81.6901 66.3499 82.68 65.8199 82.75 65.2499C82.97 63.4499 82.83 61.5999 82.83 59.3999C81.65 59.9899 81.07 60.2999 80.48 60.5799C75.01 63.1899 68.36 61.4699 64.92 56.4999C63.29 54.1499 62.4 51.4699 63.24 48.7199C63.54 47.7399 65.23 47.1899 66.29 46.4399C66.78 47.3399 67.38 48.1999 67.72 49.1599C67.93 49.7499 67.7 50.4799 67.76 51.1399C68.05 54.8299 71.32 57.5199 75.44 57.4699C79.53 57.4199 82.68 54.6299 82.75 50.8599C82.83 46.1999 82.9501 41.5399 82.7801 36.8899C82.5601 30.9799 77.4301 26.6399 71.5301 27.1099C67.2001 27.4499 62.9 30.5499 62.35 33.6399C64.74 34.2899 67.12 34.9299 69.52 35.5799C69.69 35.3599 69.92 35.1899 69.98 34.9799C70.48 33.3799 71.7101 32.7399 73.0301 33.4799C73.7201 33.8699 74.03 35.2599 74.18 36.2399C74.43 37.8599 74.52 39.5199 74.45 41.1599C74.4 42.2499 74.3 43.7399 73.62 44.3099C72.31 45.3999 71.26 44.3299 70.41 43.1199C67.14 38.4799 61.5101 36.9299 56.2801 39.1699C52.3001 40.8699 50.11 45.4399 52.41 49.1999C53.82 51.5099 53.28 52.2699 50.45 52.7699C47.93 53.2099 45.86 54.3299 44.62 56.6199C43.44 58.7899 43.19 61.0999 44.41 63.3099C45.51 65.2899 47.47 65.7199 49.58 65.6199C52.72 65.4699 54.51 63.6899 55.16 60.3099C55.31 59.5199 55.76 58.4999 56.38 58.1699C56.93 57.8799 58.27 58.1499 58.62 58.6299C59.19 59.4299 59.51 60.6099 59.46 61.5999C59.23 65.9999 54.64 69.8199 49.42 69.8599C47.05 69.8799 45.26 70.0599 43.12 71.8099C38.74 75.3999 37.11 79.6099 37.69 84.9399C38.37 91.2099 44.45 96.1599 50.41 95.4099C54.55 94.8899 57.44 91.1499 57 86.8599C56.62 83.0799 53.72 80.9999 49.49 81.4499C48.41 81.5699 46.8 82.2599 46.81 80.4499C46.81 79.5499 47.95 78.2499 48.88 77.8499C52.88 76.1599 58.74 78.6799 60.55 82.6299C64.15 90.5099 58.37 99.6599 49.7 99.7499C48.46 99.7599 47.21 99.3099 45.99 99.3899C45.37 99.4399 44.37 100.13 44.27 100.66C43.57 104.45 45.49 108.22 48.89 110.11C56.01 114.08 64.14 109.55 64.29 101.48C64.37 97.2299 66.23 94.1699 70.11 92.3899C74.31 90.4599 78.35 90.8599 82.6 93.5999ZM53.99 127.36C54.41 125.88 54.57 124.41 55.26 123.24C55.77 122.38 56.9 121.66 57.89 121.41C58.27 121.31 59.4 122.62 59.54 123.41C60.04 126.07 61.68 127.69 63.93 128.8C65.64 129.65 67.5 130.2 69.18 131.08C69.83 131.42 70.72 132.61 70.56 132.93C70.15 133.74 69.27 134.66 68.44 134.82C67.48 135.01 66.29 134.61 65.33 134.18C62.95 133.1 60.6401 131.86 58.0901 130.57C57.9701 134.31 59.44 137.35 61.91 139.92C67.72 145.98 77.93 144.86 81.37 137.56C82.51 135.14 82.5 132.11 82.68 129.33C82.73 128.51 81.79 127.28 80.98 126.83C78.58 125.51 75.96 124.6 73.54 123.32C72.09 122.56 70.7401 121.53 69.5301 120.41C68.4401 119.39 68.16 117.81 69.47 116.96C70.24 116.46 71.7 116.86 72.8 117.09C73.27 117.19 73.6 117.9 74.04 118.28C76.49 120.46 79.36 121.76 82.65 122.59V112.23C81.86 112.68 81.38 113.15 80.86 113.19C80.03 113.27 78.59 113.3 78.44 112.94C78.13 112.18 78.4 111.12 78.63 110.23C78.74 109.82 79.27 109.46 79.69 109.21C82.66 107.41 83.03 104.62 82.58 101.57C82.04 97.9399 78.51 95.2099 74.89 95.4899C71.18 95.7799 68.78 98.3499 68.97 102.4C69.23 107.88 66.47 111.36 61.98 113.78C57.66 116.11 53.13 116.58 48.5 114.74C47.22 114.23 46.53 114.33 46.15 115.81C44.81 121.07 48.23 126.33 54 127.33L53.99 127.36Z" fill="black"/>
<path d="M92.6596 85.1201C92.6596 69.1501 92.5896 53.1701 92.6896 37.2001C92.7296 30.5801 97.0396 25.2301 103.34 23.3801C110.86 21.1701 119.4 25.3001 122.59 32.5701C123 33.4901 123.91 34.4701 124.83 34.8501C130.22 37.0901 133.29 41.5501 133.41 47.4601C133.43 48.2201 133.82 49.3501 134.39 49.6501C139.64 52.4101 142.09 59.4301 140.01 65.5001C139.46 67.1101 139.77 68.0101 140.99 69.1301C148.82 76.3401 149.04 87.9601 141.67 95.6301C140.99 96.3401 140.55 97.6301 140.61 98.6201C140.86 102.8 140.38 106.73 138.08 110.36C137.66 111.02 137.54 112.1 137.75 112.87C140.25 122.21 136.62 128.97 127.56 132.01C126.8 132.26 126.04 133.41 125.84 134.28C123.56 144.09 114.46 149.89 104.66 147.68C97.9896 146.18 92.9096 140.6 92.6596 133.79C92.3496 125.23 92.4496 116.66 92.4196 108.09C92.3896 100.44 92.4196 92.7801 92.4196 85.1301C92.4996 85.1301 92.5896 85.1301 92.6696 85.1301L92.6596 85.1201ZM135.41 99.1701C134.53 99.3601 133.81 99.5501 133.08 99.6601C124.74 100.99 117.75 94.7401 118.42 86.5901C118.94 80.3001 125.24 75.5701 130.71 77.3801C132.12 77.8501 133.49 78.5501 133.11 80.3301C132.74 82.1101 131.26 81.5601 130.04 81.4201C124.88 80.8601 121.62 84.8301 123.14 89.8101C124.72 94.9701 130.81 97.1801 135.84 94.4201C144.42 89.7101 144.9 77.2401 136.88 71.6001C134.93 70.2301 133.23 69.7301 130.88 69.8701C126.62 70.1201 123.28 68.0301 121.19 64.3901C120.48 63.1601 120.41 61.3701 120.6 59.9101C120.68 59.2801 122.13 58.7001 123.06 58.4101C123.29 58.3401 123.99 59.4401 124.32 60.0901C124.58 60.5901 124.54 61.2301 124.72 61.7801C125.69 64.6701 129.13 66.3801 132.51 65.6701C135.23 65.1001 136.43 63.2001 136.21 59.8001C135.95 55.7901 134.13 54.0101 129.1 52.8501C126.34 52.2101 126.15 51.8101 127.48 49.3901C129.65 45.4701 127.97 40.9701 123.66 39.1101C118.49 36.8801 113.09 38.4501 109.63 43.3001C108.72 44.5701 107.56 45.3401 106.32 44.4501C105.66 43.9801 105.54 42.4901 105.53 41.4601C105.52 39.5001 105.67 37.5301 105.94 35.6001C106.05 34.8301 106.55 33.6001 107.03 33.5101C107.94 33.3501 109.02 33.7601 109.91 34.1701C110.31 34.3501 110.45 35.1201 110.72 35.6501C113.07 35.0001 115.28 34.4001 117.67 33.7401C117.39 33.1001 117.24 32.5501 116.93 32.1001C114.4 28.3901 109.31 26.4201 105.07 27.4901C100.57 28.6201 97.6096 32.0501 97.2796 37.0101C96.9996 41.2401 97.0096 45.4901 97.0196 49.7301C97.0196 54.2601 100.16 57.3701 104.66 57.5101C109 57.6501 111.88 54.9801 112.31 50.4101C112.36 49.9101 112.24 49.3501 112.45 48.9301C112.78 48.2501 113.3 47.1601 113.75 47.1501C114.61 47.1301 115.73 47.5501 116.28 48.1801C116.79 48.7701 116.86 49.8801 116.83 50.7601C116.61 58.8701 108.55 63.8601 100.38 60.9801C99.3196 60.6001 98.2796 60.1501 97.1796 59.7101C96.4396 65.2201 96.5096 65.3601 100.72 67.5501C101.09 67.7401 101.57 67.8901 101.76 68.2101C102.19 68.9301 102.96 70.0101 102.72 70.4601C102.34 71.1501 101.25 71.7101 100.41 71.8101C99.4096 71.9301 98.3496 71.4901 97.1396 71.2701V93.9501C97.6396 93.7301 97.9396 93.6401 98.2096 93.4801C107.31 88.1301 114.92 92.2301 115.52 102.62C115.63 104.53 116.52 106.8 117.83 108.15C121.11 111.52 125.38 112.3 129.84 110.8C134.62 109.2 137.1 103.92 135.38 99.1601L135.41 99.1701ZM121.56 129.38C120.71 130.16 120.2 130.89 119.5 131.24C116.78 132.59 114.04 133.96 111.19 134.97C110.56 135.19 109.42 133.98 108.51 133.43C109.06 132.63 109.47 131.68 110.19 131.09C110.79 130.6 111.76 130.6 112.54 130.31C115.91 129.07 118.81 127.3 120.41 123.84C120.83 122.94 122.04 121.54 122.45 121.67C123.46 122 124.31 123.03 125.04 123.92C125.42 124.39 125.49 125.16 125.56 125.82C125.72 127.35 126.54 127.5 127.83 127.14C132.02 125.96 135.06 120.6 133.89 116.42C133.45 114.86 132.77 114.25 131.01 114.91C127.55 116.19 123.94 116.16 120.44 115.1C114.45 113.28 111.19 108.72 111.04 102.23C110.93 97.5501 107.94 94.8301 103.76 95.6001C100.13 96.2701 97.5896 99.1301 97.1996 102.8C96.8496 106.02 98.4696 108.11 100.81 110C101.42 110.49 101.47 111.67 101.78 112.54C100.89 112.75 99.9996 113.08 99.0996 113.11C98.5096 113.13 97.8996 112.72 97.2296 112.48V122.66C98.1296 122.38 98.8196 122.3 99.3596 121.98C101.85 120.52 104.33 119.06 106.74 117.47C108 116.64 109.4 115.68 110.42 117.14C110.92 117.87 110.55 119.7 109.93 120.58C109.11 121.74 107.76 122.65 106.46 123.33C103.96 124.64 101.3 125.65 98.7696 126.91C98.0596 127.26 97.1096 128 97.0396 128.65C95.6796 140.54 104.09 145.33 112.2 143.29C117.98 141.84 122.71 135.22 121.61 129.4L121.56 129.38Z" fill="black"/>
<path d="M117.23 71.6598C116.89 70.3098 116.83 68.7798 116.13 67.6598C115.65 66.8998 114.28 66.7098 113.3 66.2598C112.94 67.1298 112.19 68.0397 112.28 68.8597C112.89 74.3497 112.14 75.8497 107.42 78.5397C106.75 78.9197 105.96 80.3298 106.18 80.7498C106.63 81.5898 107.71 82.5098 108.6 82.5798C109.63 82.6698 110.9 82.0998 111.79 81.4498C115.02 79.0498 116.92 75.8498 117.24 71.6598H117.23Z" fill="white"/>
<path d="M62.4004 71.3695C63.2304 69.8395 63.8004 68.0595 64.9604 66.8495C66.2004 65.5595 67.7004 66.4195 67.7604 68.2495C67.7804 68.9095 67.6804 69.5695 67.5804 70.2195C66.9904 73.9895 68.5403 76.6195 71.8503 78.3595C72.9903 78.9595 74.5504 79.4795 73.6504 81.2495C72.8404 82.8395 71.4103 82.6195 69.9703 82.1095C65.9503 80.6895 62.8903 76.1695 62.4103 71.3595L62.4004 71.3695Z" fill="black"/>
<path d="M117.23 71.6598C116.92 75.8398 115.01 79.0398 111.78 81.4498C110.89 82.1098 109.63 82.6698 108.59 82.5798C107.7 82.4998 106.62 81.5798 106.17 80.7498C105.95 80.3298 106.74 78.9197 107.41 78.5397C112.13 75.8497 112.88 74.3497 112.27 68.8597C112.18 68.0397 112.93 67.1298 113.29 66.2598C114.26 66.7098 115.64 66.8998 116.12 67.6598C116.82 68.7798 116.89 70.3098 117.22 71.6598H117.23Z" fill="black"/>
</svg>
