<svg width="20" height="21" viewBox="0 0 20 21" fill="none" xmlns="http://www.w3.org/2000/svg">
<path fill-rule="evenodd" clip-rule="evenodd" d="M9 0.5C4.02944 0.5 0 4.52944 0 9.5C0 14.4706 4.02944 18.5 9 18.5C11.125 18.5 13.078 17.7635 14.6177 16.5319L18.2929 20.2071C18.6834 20.5976 19.3166 20.5976 19.7071 20.2071C20.0976 19.8166 20.0976 19.1834 19.7071 18.7929L16.0319 15.1177C17.2635 13.578 18 11.625 18 9.5C18 4.52944 13.9706 0.5 9 0.5ZM2 9.5C2 5.63401 5.13401 2.5 9 2.5C12.866 2.5 16 5.63401 16 9.5C16 13.366 12.866 16.5 9 16.5C5.13401 16.5 2 13.366 2 9.5Z" fill="#98A2B3"/>
</svg>
