<svg width="30" height="30" viewBox="0 0 30 30" fill="none" xmlns="http://www.w3.org/2000/svg">
<path d="M27.6263 13.2025L3.44125 1.40374C3.20884 1.29048 2.95142 1.23822 2.69324 1.25188C2.43506 1.26554 2.1846 1.34467 1.96544 1.48182C1.74627 1.61898 1.56561 1.80964 1.44045 2.03587C1.31529 2.26209 1.24975 2.51645 1.25 2.77499V2.81874C1.25012 3.02313 1.27531 3.22673 1.325 3.42499L3.645 12.705C3.6761 12.8286 3.74426 12.9398 3.84033 13.0236C3.9364 13.1073 4.0558 13.1597 4.1825 13.1737L14.3788 14.3075C14.5484 14.3279 14.7047 14.4098 14.8181 14.5376C14.9315 14.6654 14.9941 14.8304 14.9941 15.0012C14.9941 15.1721 14.9315 15.3371 14.8181 15.4649C14.7047 15.5927 14.5484 15.6746 14.3788 15.695L4.1825 16.8287C4.0558 16.8427 3.9364 16.8951 3.84033 16.9789C3.74426 17.0627 3.6761 17.1739 3.645 17.2975L1.325 26.5762C1.27531 26.7745 1.25012 26.9781 1.25 27.1825V27.2262C1.24996 27.4847 1.31565 27.7389 1.4409 27.9649C1.56615 28.191 1.74683 28.3815 1.96597 28.5185C2.1851 28.6555 2.43548 28.7345 2.69356 28.7481C2.95163 28.7617 3.20893 28.7095 3.44125 28.5962L27.625 16.7975C27.9618 16.6332 28.2457 16.3776 28.4442 16.0597C28.6428 15.7419 28.7481 15.3747 28.7481 15C28.7481 14.6253 28.6428 14.258 28.4442 13.9402C28.2457 13.6224 27.9631 13.3668 27.6263 13.2025Z" fill="#EB5017"/>
</svg>
