<svg width="24" height="24" viewBox="0 0 24 24" fill="none" xmlns="http://www.w3.org/2000/svg">
<path fill-rule="evenodd" clip-rule="evenodd" d="M12 6C8.68629 6 6 8.68629 6 12C6 15.3137 8.68629 18 12 18C15.3137 18 18 15.3137 18 12C18 8.68629 15.3137 6 12 6ZM8 12C8 9.79086 9.79086 8 12 8C14.2091 8 16 9.79086 16 12C16 14.2092 14.2091 16 12 16C9.79086 16 8 14.2092 8 12Z" fill="#98A2B3"/>
<path fill-rule="evenodd" clip-rule="evenodd" d="M14.4992 2.02966C13.1043 0.680217 10.8905 0.680217 9.49562 2.02966C9.14132 2.37241 8.64867 2.53248 8.16057 2.46344C6.23887 2.19163 4.44789 3.49286 4.11256 5.4045C4.02739 5.89004 3.72292 6.30911 3.28745 6.54016C1.573 7.4498 0.888901 9.55524 1.74125 11.2989C1.95774 11.7417 1.95774 12.2597 1.74125 12.7026C0.888901 14.4463 1.573 16.5517 3.28745 17.4613C3.72292 17.6924 4.02739 18.1114 4.11256 18.597C4.44789 20.5086 6.23888 21.8099 8.16057 21.538C8.64867 21.469 9.14132 21.6291 9.49562 21.9718C10.8905 23.3213 13.1043 23.3213 14.4992 21.9718C14.8535 21.6291 15.3461 21.469 15.8342 21.538C17.7559 21.8099 19.5469 20.5086 19.8823 18.597C19.9674 18.1114 20.2719 17.6924 20.7074 17.4613C22.4218 16.5517 23.1059 14.4463 22.2536 12.7026C22.0371 12.2597 22.0371 11.7417 22.2536 11.2989C23.1059 9.55523 22.4218 7.4498 20.7074 6.54016C20.2719 6.30911 19.9674 5.89004 19.8823 5.4045C19.5469 3.49286 17.7559 2.19163 15.8342 2.46344C15.3461 2.53248 14.8535 2.37241 14.4992 2.02966ZM10.8862 3.46711C11.5057 2.86773 12.489 2.86773 13.1086 3.46711C13.9063 4.23878 15.0154 4.59917 16.1143 4.44373C16.9679 4.323 17.7634 4.90096 17.9123 5.75005C18.1041 6.84321 18.7896 7.78671 19.77 8.30688C20.5315 8.71092 20.8353 9.64608 20.4567 10.4205C19.9693 11.4176 19.9693 12.5838 20.4567 13.5809C20.8353 14.3554 20.5315 15.2906 19.77 15.6946C18.7896 16.2148 18.1041 17.1583 17.9123 18.2514C17.7634 19.1005 16.9679 19.6785 16.1143 19.5578C15.0154 19.4023 13.9063 19.7627 13.1086 20.5344C12.489 21.1338 11.5057 21.1338 10.8862 20.5344C10.0885 19.7627 8.97939 19.4023 7.88047 19.5578C7.02692 19.6785 6.23142 19.1005 6.08248 18.2514C5.89073 17.1583 5.20523 16.2148 4.22483 15.6946C3.46333 15.2906 3.15948 14.3554 3.53806 13.5809C4.02547 12.5838 4.02547 11.4176 3.53806 10.4205C3.15948 9.64608 3.46333 8.71092 4.22483 8.30688C5.20523 7.78671 5.89073 6.84321 6.08248 5.75005C6.23142 4.90097 7.02692 4.323 7.88047 4.44373C8.97939 4.59917 10.0885 4.23878 10.8862 3.46711Z" fill="#98A2B3"/>
</svg>
