<svg width="25" height="24" viewBox="0 0 25 24" fill="none" xmlns="http://www.w3.org/2000/svg">
<path d="M5.09292 9.63079C5.574 9.79115 5.9515 10.1687 6.11186 10.6497C6.27507 11.1394 6.96761 11.1394 7.13081 10.6497C7.29117 10.1687 7.66868 9.79115 8.14976 9.63079C8.63937 9.46759 8.63937 8.77505 8.14976 8.61185C7.66868 8.45149 7.29117 8.07398 7.13081 7.5929C6.96761 7.10329 6.27507 7.10329 6.11186 7.5929C5.9515 8.07398 5.574 8.45149 5.09292 8.61185C4.60331 8.77505 4.60331 9.46759 5.09292 9.63079Z" fill="#EB5017"/>
<path fill-rule="evenodd" clip-rule="evenodd" d="M5.5 4C3.29086 4 1.5 5.79086 1.5 8V16C1.5 18.2091 3.29086 20 5.5 20H15.5C17.3925 20 18.978 18.6858 19.3936 16.9202L20.3 17.6C21.6185 18.5889 23.5 17.6481 23.5 16V8C23.5 6.35191 21.6185 5.41115 20.3 6.4L19.3936 7.07977C18.978 5.31421 17.3925 4 15.5 4H5.5ZM21.5 16L19.5 14.5V9.5L21.5 8V16ZM3.5 8C3.5 6.89543 4.39543 6 5.5 6H15.5C16.6046 6 17.5 6.89543 17.5 8V16C17.5 17.1046 16.6046 18 15.5 18H5.5C4.39543 18 3.5 17.1046 3.5 16V8Z" fill="#EB5017"/>
</svg>
