<svg width="103" height="100" viewBox="0 0 103 100" fill="none" xmlns="http://www.w3.org/2000/svg">
<path d="M56.0892 30.0624C59.5357 29.9115 59.8076 39.03 56.0892 39.4437C52.0383 37.4295 57.684 36.5206 55.2861 32.9173C54.4242 31.6221 54.4297 30.4942 56.0892 30.0624Z" fill="#BE6C6C"/>
<path d="M61.298 26.4364C63.089 26.3143 64.6013 30.1752 64.9889 31.5431C65.8066 34.4291 64.9413 42.1653 61.6659 43.0704C60.9663 43.118 60.2565 42.9354 59.9803 42.2043C59.3072 40.4219 64.7939 36.936 61.2001 30.1786C60.6154 29.0788 58.7199 27.1675 61.298 26.4364Z" fill="#BE6C6C"/>
<path d="M65.334 21.8963C66.5608 21.8412 67.0144 22.2701 67.7951 23.1836C72.2534 28.3982 73.2218 36.1672 70.3385 42.3959C69.6933 43.7895 67.8674 47.0762 66.4274 47.6064C65.8175 47.7072 65.1971 47.5158 64.8256 46.9953C63.9026 45.7021 65.3881 44.5691 66.0923 43.6406C69.6668 38.9277 69.8349 31.43 66.5674 26.4817C65.6967 25.1633 62.9974 23.3125 65.334 21.8963Z" fill="#BE6C6C"/>
<path d="M70.1005 17.3717C71.3378 17.277 71.8992 17.9959 72.6738 18.8781C80.6479 27.9617 80.3738 41.9292 72.5014 50.9426C72.0621 51.4456 71.6067 52.0194 70.9846 52.2961C69.7457 52.6447 68.5397 51.3289 69.1648 50.1279C69.4865 49.5096 70.4216 48.7553 70.8885 48.1604C76.9273 40.465 77.2026 28.3147 70.519 20.9647C69.5583 19.9085 67.8306 18.4574 70.1005 17.3717Z" fill="#BE6C6C"/>
<path d="M74.3391 12.2288C75.7592 12.1422 76.9494 13.8353 77.7577 14.7951C86.3306 24.9743 87.5088 38.9869 80.7531 50.5711C79.7848 52.2318 76.3938 56.9987 74.5791 57.4763C73.4925 57.479 72.5056 56.3054 73.0939 55.2727C73.463 54.625 74.5741 53.7189 75.1298 53.1016C84.2501 42.9704 84.5705 26.3463 75.0789 16.2901C74.258 15.4204 71.2912 13.048 74.3391 12.2288Z" fill="#BE6C6C"/>
<path d="M56.3876 46.6586C58.5211 47.375 57.6876 52.4158 57.6862 54.4306L57.6901 73.1494C57.6908 74.6225 57.7537 76.1296 57.6185 77.5968C57.1946 82.192 53.4017 86.174 48.7384 86.457C46.3547 86.6016 43.9284 86.5162 41.54 86.5159L19.4876 86.5157C17.6692 86.5164 15.7735 86.6208 13.9658 86.4473C9.88652 86.0553 6.26276 82.8517 5.14799 78.9517C4.53169 76.7957 4.73238 73.0744 4.73243 70.7479L4.73059 9.72528C4.73007 8.77032 4.68877 7.79406 4.75402 6.84205C5.10066 1.78397 9.40224 -2.46253 14.459 -2.68497C16.5644 -2.77759 18.7161 -2.68656 20.8261 -2.68685L43.1296 -2.68842C49.2998 -2.6876 55.3619 -2.70539 57.4524 4.85097C57.841 6.25595 57.7019 7.23106 57.691 8.63914L57.6894 19.5556C57.6985 20.8692 58.1951 22.548 56.3876 22.8888C54.3614 22.6314 54.6856 20.5914 54.6865 19.0114L54.6874 11.444C54.6881 10.0991 54.7948 8.60312 54.7636 7.30605C54.6829 3.97261 52.1715 1.01486 48.8743 0.437037C47.3985 0.178393 45.8223 0.260975 44.3288 0.264169C43.6973 1.48425 41.7498 5.0138 40.6496 5.34032C39.532 5.6721 37.2145 5.51303 35.9498 5.51272L25.3351 5.51186C21.7446 5.51233 21.5728 5.60404 19.5365 2.26123C19.1368 1.60546 18.6894 0.949022 18.3432 0.264169C15.0932 0.256851 12.3033 -0.00562096 9.81425 2.48999C7.81494 4.49466 7.68642 6.71246 7.68646 9.3467L7.68948 67.7348C7.69034 69.5657 7.72588 71.4029 7.6887 73.233C7.81642 73.8117 8.56568 74.9492 8.93632 75.4377C11.1671 78.3787 14.7832 77.7738 18.0265 77.7745L40.6764 77.774C43.2481 77.7736 45.9532 77.9369 48.5057 77.6098C51.1134 77.2758 54.3245 74.867 54.6883 72.1566C54.7273 71.4815 54.6904 70.7816 54.6902 70.1042L54.6834 50.1209C54.6668 48.4691 54.2241 46.9586 56.3876 46.6586Z" fill="#BE6C6C"/>
<path d="M21.79 0.263905C22.4616 0.220812 23.1535 0.261572 23.8275 0.261867L40.9144 0.263905C40.5916 0.75038 40.3004 1.26746 39.9973 1.76708L39.5317 2.58814H23.3227C22.7266 1.87028 22.2672 1.06247 21.79 0.263905Z" fill="#D78A8A"/>
<path d="M12.8484 14.6519C13.5739 14.6054 14.1808 14.8544 14.4477 15.583C14.8181 16.5946 15.0875 19.673 13.5102 20.1968C12.8724 20.253 12.212 20.146 11.8987 19.5098C11.4084 18.515 11.2203 15.3911 12.8484 14.6519Z" fill="#BE6C6C"/>
<path d="M15.1658 6.44117C15.8704 6.377 16.5521 6.60071 16.8895 7.28156C17.7357 8.98984 15.4318 9.37658 14.8878 10.5669C14.32 11.8092 15.0392 13.2483 13.5103 13.9815C10.0523 14.3906 11.4137 7.99749 15.1658 6.44117Z" fill="#BE6C6C"/>
<path d="M30.7035 21.4636C36.1186 21.1945 41.0307 24.9994 42.0597 30.3512C42.3364 31.7901 42.2782 33.2986 42.2772 34.7585V44.4187C42.2763 47.6316 42.2478 50.0381 40.3687 52.8088C38.5816 55.4435 35.8467 56.8912 32.7807 57.4764C32.7983 58.3589 32.7827 59.2441 32.7807 60.1267C36.0837 59.7262 39.167 58.3639 41.4415 55.873C44.6763 52.3305 44.8895 49.481 44.8906 45.0757L44.8863 39.9314C44.88 38.7583 45.0961 35.5925 47.1884 37.0742C48.116 37.7308 47.8949 39.0324 47.886 40.0118L47.8833 42.8887C47.8958 48.355 48.2542 52.0265 44.7017 56.6689C41.6707 60.6304 37.5851 62.565 32.7807 63.2023V69.5878L37.9116 69.5819C39.1989 69.5805 41.683 69.1152 41.7632 71.05C41.8481 73.0954 38.8226 72.5992 37.5704 72.5992L31.8576 72.5967L25.399 72.5992C24.3895 72.6029 21.943 72.9361 21.1193 72.2789C20.5309 71.8092 20.3866 70.7661 20.916 70.202C21.8232 69.2352 24.0297 69.5823 25.2046 69.5869L29.8097 69.5878V63.2023C22.2813 62.1031 15.7341 57.3233 14.8389 49.2855C14.6357 47.4596 14.7161 45.5932 14.7175 43.7585L14.7189 40.0562C14.7171 38.7168 14.4488 36.5391 16.547 36.7928C18.1862 36.9913 17.7702 39.798 17.7652 40.8841L17.7607 45.1224C17.7611 46.9424 17.7041 48.8072 18.1431 50.5873C19.4629 55.9365 24.479 59.5318 29.8097 60.1267V57.4764C27.6696 57.0883 25.6267 56.2965 23.9817 54.8363C20.4652 51.7152 20.358 48.6516 20.3607 44.4309L20.3596 34.4633C20.3589 32.9927 20.2708 31.4809 20.5839 30.0354C21.6374 25.1734 25.7121 21.7185 30.7035 21.4636Z" fill="#BE6C6C"/>
<path d="M30.3691 24.5015C35.1978 23.8332 39.0865 27.7378 39.2148 32.499C38.348 32.4963 36.4922 32.305 35.8671 32.9204C35.3363 33.4428 35.2264 34.4841 35.7776 35.0326C36.528 35.7789 38.2465 35.5673 39.2148 35.5644V37.1469C38.3518 37.1415 36.4756 36.9165 35.8553 37.5377C35.3333 38.0604 35.2126 39.0924 35.7719 39.6307C36.5611 40.3901 38.2132 40.1502 39.2148 40.1321V41.6095C38.2415 41.6102 36.6483 41.3508 35.8861 42.0352C35.2984 42.5631 35.2311 43.5867 35.7914 44.1574C36.4528 44.8314 38.3085 44.5881 39.2148 44.5983C39.2399 49.8944 37.7405 53.7992 31.8576 54.5118C29.5154 54.5922 27.3828 53.9569 25.6852 52.2727C23.3103 49.9169 23.335 47.7106 23.323 44.5983C24.1588 44.5949 26.1512 44.8115 26.7729 44.2879C27.4 43.7596 27.4301 42.6254 26.8458 42.0561C26.2536 41.479 24.1776 41.6077 23.323 41.6095C23.3094 41.1174 23.3198 40.6242 23.323 40.1321C24.3002 40.1357 26.0547 40.367 26.8232 39.7143C27.4 39.2242 27.4532 38.1825 26.9226 37.6397C26.1972 36.897 24.3142 37.1428 23.323 37.1469C23.301 36.6215 23.3198 36.0904 23.323 35.5644C24.3434 35.565 25.9989 35.7923 26.7933 35.0732C27.3527 34.5668 27.4754 33.504 26.9131 32.9525C26.2246 32.2772 24.2698 32.4922 23.323 32.499C23.2272 28.2493 26.2692 25.123 30.3691 24.5015Z" fill="#D78A8A"/>
</svg>
